<svg version="1.1" xmlns="http://www.w3.org/2000/svg" viewBox="0 0 898.6666666666665 965.3333333333334" width="898.6666666666665" height="965.3333333333334">
  <!-- svg-source:excalidraw -->
  
  <defs>
    <style>
      @font-face {
        font-family: "Virgil";
        src: url("https://excalidraw.com/Virgil.woff2");
      }
      @font-face {
        font-family: "Cascadia";
        src: url("https://excalidraw.com/Cascadia.woff2");
      }
    </style>
  </defs>
  <rect x="0" y="0" width="898.6666666666665" height="965.3333333333334" fill="#ffffff"></rect><g stroke-linecap="round" transform="translate(10 11.333333333333371) rotate(0 165.5 472)"><path d="M-1.27 -0.14 L333.78 3.92 L333.75 944.7 L3.59 942.55" stroke="none" stroke-width="0" fill="#f0f4fa"></path><path d="M-1.37 2.15 C118.58 -2.49, 235.23 -0.32, 332.92 -1.16 M-1.15 0.58 C105.41 -0.95, 213.76 -2.13, 329.84 0.8 M329.82 -1.1 C325.64 243.29, 326.55 489.2, 331.89 944.53 M330.21 0.51 C325 239.3, 324.59 479.05, 330.72 943.86 M332.08 944.28 C237.13 946.28, 145.56 946.99, -0.54 942.45 M332.12 942.67 C202.56 945.4, 73.8 943.65, 1.11 943.02 M-0.28 944.44 C2.58 609.9, 2.44 272.42, -0.81 0.18 M0.57 943.43 C7.22 629.29, 7.33 315.55, -0.48 -0.15" stroke="#343a40" stroke-width="1" fill="none"></path></g><g stroke-linecap="round" transform="translate(500.66666666666663 10.000000000000028) rotate(0 193.99999999999994 355)"><path d="M1.82 -3.96 L385.79 -0.13 L386.61 711.85 L-3.68 710.15" stroke="none" stroke-width="0" fill="#f0ffff"></path><path d="M1.63 2.3 C110.58 0.58, 220.03 -0.69, 388.1 -0.67 M-0.64 -1.11 C149.37 -1.64, 297.82 -2.14, 387.1 -0.13 M386.5 0.51 C383.74 231.37, 383.94 463.4, 387.19 710.09 M388 -0.03 C383.16 269.38, 383.23 537.45, 388.67 709.99 M390.25 709.53 C269.87 706.64, 155.19 705.57, -1.97 710.29 M386.87 710.89 C294.72 705.03, 201.38 705.85, -0.44 710.16 M-0.43 709.06 C1.53 537.2, 3.7 365.5, 0.01 0.07 M-0.58 709.62 C0.34 506.6, 0.53 303.73, -0.05 -0.78" stroke="#343a40" stroke-width="1" fill="none"></path></g><g stroke-linecap="round"><g transform="translate(309.5 324.3832491195835) rotate(0 120.78446115288239 47.260620449148405)"><path d="M0 0 C12.97 6.89, 37.59 25.58, 77.85 41.33 C118.11 57.09, 214.28 85.66, 241.57 94.52" stroke="#000" stroke-width="4.5" fill="none" stroke-dasharray="8 12"></path></g><g transform="translate(309.5 324.3832491195835) rotate(0 120.78446115288239 47.260620449148405)"><path d="M211.6 95.92 C218.49 95.59, 225.39 95.27, 241.57 94.52" stroke="#000" stroke-width="4.5" fill="none"></path></g><g transform="translate(309.5 324.3832491195835) rotate(0 120.78446115288239 47.260620449148405)"><path d="M217.72 76.33 C223.2 80.51, 228.69 84.7, 241.57 94.52" stroke="#000" stroke-width="4.5" fill="none"></path></g></g><g stroke-linecap="round"><g transform="translate(307.5 607.0464641188564) rotate(0 124.33333333333337 19.507920903291563)"><path d="M0 0 C41.44 6.5, 207.22 32.51, 248.67 39.02" stroke="#000" stroke-width="4.5" fill="none" stroke-dasharray="8 12"></path></g><g transform="translate(307.5 607.0464641188564) rotate(0 124.33333333333337 19.507920903291563)"><path d="M219.23 44.78 C225.56 43.54, 231.9 42.3, 248.67 39.02" stroke="#000" stroke-width="4.5" fill="none"></path></g><g transform="translate(307.5 607.0464641188564) rotate(0 124.33333333333337 19.507920903291563)"><path d="M222.41 24.51 C228.06 27.63, 233.71 30.76, 248.67 39.02" stroke="#000" stroke-width="4.5" fill="none"></path></g></g><g stroke-linecap="round"><g transform="translate(304.5 737.2298611753496) rotate(0 179.6815696849509 -33.663631315849045)"><path d="M0 0 C40.56 -1.67, 183.45 1.22, 243.35 -10 C303.24 -21.22, 340.03 -57.77, 359.36 -67.33" stroke="#000" stroke-width="4.5" fill="none" stroke-dasharray="8 12"></path></g><g transform="translate(304.5 737.2298611753496) rotate(0 179.6815696849509 -33.663631315849045)"><path d="M341.32 -43.36 C347.38 -51.4, 353.43 -59.45, 359.36 -67.33" stroke="#000" stroke-width="4.5" fill="none"></path></g><g transform="translate(304.5 737.2298611753496) rotate(0 179.6815696849509 -33.663631315849045)"><path d="M330.14 -60.56 C339.95 -62.83, 349.76 -65.1, 359.36 -67.33" stroke="#000" stroke-width="4.5" fill="none"></path></g></g><g stroke-linecap="round"><g transform="translate(309.5 883.7036457978883) rotate(0 235.18837404794 -110.00328609774198)"><path d="M0 0 C63.47 -27.68, 302.44 -129.41, 380.83 -166.08 C459.23 -202.75, 455.45 -211.02, 470.38 -220.01" stroke="#000" stroke-width="4.5" fill="none" stroke-dasharray="8 12"></path></g><g transform="translate(309.5 883.7036457978883) rotate(0 235.18837404794 -110.00328609774198)"><path d="M454.49 -194.56 C460.67 -204.47, 466.86 -214.37, 470.38 -220.01" stroke="#000" stroke-width="4.5" fill="none"></path></g><g transform="translate(309.5 883.7036457978883) rotate(0 235.18837404794 -110.00328609774198)"><path d="M441.85 -210.73 C452.95 -214.34, 464.06 -217.95, 470.38 -220.01" stroke="#000" stroke-width="4.5" fill="none"></path></g></g><g stroke-linecap="round"><g transform="translate(309.5 445.8959846073772) rotate(0 121.26190476190499 -28.2895126287587)"><path d="M0 0 C15.79 -9.34, 54.29 -51.2, 94.71 -56.04 C135.13 -60.88, 217.89 -33.52, 242.52 -29.02" stroke="#000" stroke-width="4.5" fill="none" stroke-dasharray="8 12"></path></g><g transform="translate(309.5 445.8959846073772) rotate(0 121.26190476190499 -28.2895126287587)"><path d="M212.69 -25.86 C223.12 -26.96, 233.56 -28.07, 242.52 -29.02" stroke="#000" stroke-width="4.5" fill="none"></path></g><g transform="translate(309.5 445.8959846073772) rotate(0 121.26190476190499 -28.2895126287587)"><path d="M217.64 -45.77 C226.34 -39.91, 235.05 -34.05, 242.52 -29.02" stroke="#000" stroke-width="4.5" fill="none"></path></g></g><g stroke-linecap="round" transform="translate(58.27308569838283 783.333333333333) rotate(0 39 32.5)"><path d="M0 0 C0 0, 0 0, 0 0 M0 0 C0 0, 0 0, 0 0 M1.27 7.8 C-0.26 5.81, 1.48 2.76, 6.17 0.11 M-0.71 5.97 C1.81 3.75, 4.47 1.03, 5.27 -0.17 M1.07 11.98 C2.82 10.2, 2.93 3.63, 12.63 -1.62 M0 11.76 C1.67 8.59, 4.76 6.44, 11.12 1.52 M-2.54 19.16 C2.26 14.36, 15.03 4.76, 16.9 2.61 M-2 17.01 C2.96 13.47, 10.87 6.49, 16.39 1.87 M2.61 21.86 C6.11 12.81, 10.41 10.6, 24.36 2.46 M1.01 23.98 C8.79 15.54, 13.93 8.54, 21.65 0.89 M-3.25 34.45 C5.82 19.53, 17.16 15.8, 28.06 0.34 M-1.86 30.31 C10.01 19.99, 20.06 9.23, 27.39 0.96 M-0.11 39.95 C9.25 25.37, 16.49 16.4, 31.25 -3.03 M-1.02 36.51 C8.89 30.36, 13.02 21.98, 30.06 -0.89 M0.14 46.33 C11.77 33.42, 14.36 24.73, 36.62 3 M-1.43 41.08 C12.29 30.24, 23.62 19.22, 35.97 -1.59 M1.66 46.77 C20.48 30.13, 36.15 10.14, 45.52 -0.96 M-1.54 47.85 C7.98 38.42, 18.58 24.81, 41.5 -1.06 M-0.66 52.35 C16.34 40.3, 22.93 27.34, 46.76 3.63 M-1.7 53.66 C8.66 42.66, 21.93 33.03, 46.89 0.82 M-0.54 64.12 C24.42 36.28, 40.97 15.03, 55.85 1.24 M1.57 59.38 C15.29 41.14, 32.91 21.17, 52.48 -0.79 M3.7 64.29 C24.4 41.06, 42.7 21.37, 55.71 2.28 M0.51 64.16 C14.58 47, 31.2 26.23, 56.44 -0.71 M8.41 65.26 C25.94 45.94, 39.57 22.3, 59.96 3.1 M4.49 65.4 C22.75 46.39, 38.1 30.65, 63.04 -0.72 M8.12 67.15 C28.84 44.93, 43.27 25.81, 69.66 -2.01 M12.42 67.36 C31.95 46.61, 48.53 20.79, 68.38 1.43 M13.38 62.74 C28.56 47.14, 46.02 32.07, 72.55 3.18 M15.68 65.03 C33.91 47.2, 47.84 26.56, 72.68 -0.99 M21.45 66.77 C36.63 55.69, 43.55 39, 79.16 -2.43 M21.71 64.43 C45.08 41.38, 64.25 18.16, 77.34 0.09 M29 63.9 C36.19 54.69, 46.08 37.86, 79.42 5.8 M27.81 65.63 C40.18 52.28, 51.18 41.39, 78.55 5.54 M31.41 64.72 C52.77 45.95, 72.11 23.8, 75.22 16.63 M33.39 65.72 C42.32 53.97, 51.34 41.99, 76.89 14.44 M35.47 69.78 C43.6 55.24, 57.75 42.22, 81.92 22.77 M37.67 65.82 C46.88 53.99, 58.39 40.5, 79.8 18.96 M42.68 69.54 C55.98 50.45, 69.26 41.01, 76.9 23.89 M44 66.09 C56.62 51.51, 67.52 38.77, 79.17 26.26 M45.98 64.42 C59.99 54.62, 69.05 39.97, 79.67 34.84 M49.53 64.71 C60.85 54.53, 72.75 38.68, 80.38 29.83 M52.98 64.77 C60.69 54.07, 72.77 50.05, 78.39 38.41 M53.55 64.88 C59.2 58.51, 65.52 50.79, 77.93 37.15 M58.75 62.88 C65.33 61.19, 73.62 51.57, 82.7 45.31 M59.16 65.88 C63.52 59.97, 67.99 54.75, 77.14 44.76 M61.01 64.97 C66.09 60.63, 74.7 54.01, 82.25 46.97 M65.57 65.96 C67.66 61.29, 73.49 56.11, 77.8 49.97 M72.03 64.04 C74.34 63.68, 73.62 56.31, 78.82 55.64 M69.83 65.61 C73.73 61.95, 75.76 58.12, 79.09 54.51 M75.22 66.12 C77.29 63.61, 76.44 62.84, 78.56 62.66 M75.37 65.62 C76.72 63.92, 77.96 62.75, 78.28 61.83" stroke="#868e96af" stroke-width="0.5" fill="none"></path><path d="M0.36 -0.46 C27.88 2.62, 57.44 -3.78, 78.68 -1.85 M-1.63 -1.76 C17.01 2.85, 35.01 -0.24, 77.54 0.38 M80.72 -3.99 C76.14 23.21, 78.88 41.19, 75.03 62.04 M76.06 -0.42 C79.48 16.06, 76.62 30.25, 79.87 64.83 M74.88 62.35 C53.81 67.98, 23.1 64, 2.5 68.87 M77.17 64.67 C57.62 64.41, 38.73 66.08, 0.46 63.76 M1.78 61.79 C-1.57 42.42, -1.79 16.2, -3.41 -3.68 M0.36 66.55 C-0.42 45.55, 0.27 22.1, -0.84 -1.52" stroke="#000" stroke-width="1" fill="none"></path></g><g stroke-linecap="round"><g transform="translate(138.4238991762689 790.2936289190611) rotate(0 -42.65081347788612 16.539704414272308)"><path d="M0 0 C0 -4.33, 0 -8.66, 0 -13.22 M0 0 C0 -5.18, 0 -10.36, 0 -13.22 M0 -13.22 C-12.43 -13.21, -24.86 -13.2, -46.13 -13.19 M0 -13.22 C-14.51 -13.21, -29.02 -13.2, -46.13 -13.19 M-46.13 -13.19 C-48.43 -17.86, -50.73 -22.53, -52.58 -26.28 M-46.13 -13.19 C-48.17 -17.33, -50.21 -21.48, -52.58 -26.28 M-52.58 -26.28 C-64.38 -26.33, -76.18 -26.38, -85.5 -26.42 M-52.58 -26.28 C-59.5 -26.31, -66.43 -26.34, -85.5 -26.42 M-85.5 -26.42 C-85.56 3.15, -85.62 32.71, -85.67 59.44 M-85.5 -26.42 C-85.57 6.27, -85.63 38.96, -85.67 59.44 M-85.67 59.44 C-56.76 59.46, -27.85 59.48, 0.27 59.5 M-85.67 59.44 C-56.73 59.46, -27.79 59.48, 0.27 59.5 M0.27 59.5 C0.31 45.2, 0.34 30.9, 0.37 19.54 M0.27 59.5 C0.3 49.09, 0.32 38.68, 0.37 19.54" stroke="#000" stroke-width="4" fill="none"></path></g></g><g transform="translate(65.77308569838294 855.3333333333333) rotate(0 30 12)"><text x="30" y="19" font-family="Roboto Mono, monospace" font-size="20px" fill="#000" text-anchor="middle" style="white-space: pre;" direction="ltr">_site</text></g><g stroke-linecap="round" transform="translate(58.273085698382715 177.3333333333334) rotate(0 39 32.5)"><path d="M0 0 C0 0, 0 0, 0 0 M0 0 C0 0, 0 0, 0 0 M-1.42 7.47 C0.57 5.53, 1.52 3.56, 5.64 1.14 M-0.94 6.59 C1.97 4.91, 2.83 2.76, 4.79 0.19 M-0.35 13.74 C3.62 9.27, 3.9 5.79, 9.17 -1.35 M1.56 11.32 C3.66 8.13, 8.63 1.63, 10.2 0.43 M3.85 16.71 C7.17 10.34, 10.77 8.81, 19.08 -0.26 M0.55 19.3 C6.38 11.39, 10.87 5.83, 13.71 0.32 M-1.82 26.29 C10.92 17.79, 12.52 10.65, 22.37 -3.42 M0.81 24.92 C8.2 17.29, 10.91 8.43, 21.44 1.13 M-1.68 34.44 C1.41 22.71, 9.63 15.27, 25.05 -1.16 M1.46 29.63 C8.17 21.97, 14.19 13.07, 26.26 1.88 M-1.89 39.4 C15.51 24.34, 25.42 12.95, 30.17 -3.58 M0.65 38.84 C11.68 24.62, 22.28 13.27, 32.2 1.5 M1.46 46.32 C9.85 30.43, 14.09 27.38, 34.23 3.18 M1.05 40.97 C13.15 25.36, 26.75 10.56, 36.16 1.96 M-1.64 51.55 C10.58 33.76, 22.42 23.19, 42.41 0.89 M-1.21 50.74 C17.03 31.23, 31.56 15.39, 44.13 -0.75 M3.48 51.38 C12.27 32.05, 34.6 20.22, 49.33 -0.71 M-0.9 52.9 C16.13 36.71, 29.35 20.86, 48.93 -1.59 M-3.04 62.04 C14.71 42.43, 24.28 34.25, 54.3 -3.97 M-1.92 61.24 C15.63 46.16, 29.08 25.52, 54.51 0.49 M4.24 62.92 C16.76 53.36, 23.4 38.05, 58.05 -3.28 M-0.46 64.79 C24.26 38.44, 46.5 14.87, 57.61 1.59 M7.52 69.62 C27.76 43.5, 50.36 19.48, 62.03 -1.11 M7.45 67.88 C21.02 45.99, 36.42 27.47, 64.11 -0.18 M13.12 67.43 C30.63 47.61, 46.43 28.93, 65.09 4.03 M10.33 66.66 C27.64 51.86, 41.03 33.21, 70.71 -1.66 M13.43 64.35 C38.92 39.41, 63.49 17.44, 70.81 1.52 M16.12 65.03 C32.73 47.18, 47.83 31.08, 73.21 0.33 M21.49 64.27 C39.86 42.69, 57.5 30.35, 75.51 -2.5 M23.89 66.94 C35.26 51.94, 45.59 39.48, 79.6 0.77 M27.8 63.05 C44 47.22, 58.32 30.79, 80.93 9.76 M25.52 67.34 C45.72 47.11, 60.45 27.68, 79.67 8.43 M31.55 64.48 C49.75 43.43, 68.2 24.14, 78.8 10.25 M34.01 67.22 C47.66 51.6, 61.44 34.29, 78.61 11.31 M37.34 68.29 C56.8 44.53, 68.09 30.98, 76.27 20.89 M37.17 64.63 C53.16 50.2, 70.77 30.4, 79.44 19.46 M46.5 62.12 C50.35 50.74, 68.35 36.92, 76.54 28.52 M41.95 65.62 C54.05 51.49, 65.53 39.66, 80.63 22.97 M45.75 65.59 C55.24 55.29, 61.03 46.5, 78.92 33.18 M48.1 67.28 C58.83 55.94, 69.73 44.16, 77.17 31.22 M54.54 66.23 C65.47 58.65, 72.42 46.03, 77.4 40.84 M52.48 64.73 C62.7 54.59, 72.25 44.01, 80.15 36.61 M57.74 63.51 C65.73 61.97, 67.2 53.49, 81.43 43.42 M58.82 66.13 C62.36 61.67, 69.19 57.32, 78.5 41.58 M60.89 68.85 C68.32 57.01, 73.31 54.57, 82.45 51.52 M65.89 63.65 C70.54 58.88, 75.6 56.6, 78.56 50.34 M70.65 68.52 C75.7 61.99, 76.69 57.26, 78.3 54.9 M69.5 64.97 C74.43 63.35, 76.16 58.14, 77.73 55.93 M74.54 66.46 C76.4 64.99, 76.5 64, 78.99 61.77 M75.09 65.7 C76.5 64.71, 77.5 64.23, 78.74 61.5" stroke="#868e96" stroke-width="0.5" fill="none"></path><path d="M-2.49 0.9 C14.17 -1.86, 34.64 -1.62, 81.76 -0.52 M-0.55 0.21 C22.5 -1.14, 43.56 -0.54, 78.49 0.89 M79.98 -3.42 C74.46 17.4, 75.69 32.69, 78.69 65.89 M79.22 -0.52 C78.26 13.1, 78.95 26.29, 79.72 64.32 M76.4 64.52 C58.24 63.57, 38.84 62, 3.2 62.32 M76.51 63.89 C46.01 62.61, 14.52 64.06, -1.36 63.77 M-2.49 65.13 C5.03 53.24, 0.59 37.57, 0.61 1.63 M1.58 64.38 C-0.18 48.27, 0.94 28.89, 1.72 -0.54" stroke="#000" stroke-width="1" fill="none"></path></g><g stroke-linecap="round"><g transform="translate(138.42389917626872 184.29362891906126) rotate(0 -42.65081347788612 16.53970441427232)"><path d="M0 0 C0 -3.93, 0 -7.86, 0 -13.22 M0 0 C0 -3.91, 0 -7.82, 0 -13.22 M0 -13.22 C-14.77 -13.21, -29.55 -13.2, -46.13 -13.19 M0 -13.22 C-11.22 -13.21, -22.44 -13.2, -46.13 -13.19 M-46.13 -13.19 C-48.43 -17.85, -50.73 -22.52, -52.58 -26.28 M-46.13 -13.19 C-48.62 -18.24, -51.11 -23.3, -52.58 -26.28 M-52.58 -26.28 C-59.82 -26.31, -67.06 -26.34, -85.5 -26.42 M-52.58 -26.28 C-61.35 -26.32, -70.12 -26.35, -85.5 -26.42 M-85.5 -26.42 C-85.55 -2.73, -85.6 20.96, -85.67 59.44 M-85.5 -26.42 C-85.56 3.53, -85.62 33.49, -85.67 59.44 M-85.67 59.44 C-60.61 59.46, -35.55 59.48, 0.27 59.5 M-85.67 59.44 C-53.72 59.47, -21.76 59.49, 0.27 59.5 M0.27 59.5 C0.3 48.09, 0.33 36.67, 0.37 19.54 M0.27 59.5 C0.3 47.62, 0.33 35.75, 0.37 19.54" stroke="#000" stroke-width="4" fill="none"></path></g></g><g transform="translate(42.77308569838277 249.33333333333337) rotate(0 53.00000000000003 12)"><text x="53" y="19" font-family="Roboto Mono, monospace" font-size="20px" fill="#000" text-anchor="middle" style="white-space: pre;" direction="ltr">_includes</text></g><g stroke-linecap="round" transform="translate(58.273085698382715 322.3333333333335) rotate(0 39 32.5)"><path d="M0 0 C0 0, 0 0, 0 0 M0 0 C0 0, 0 0, 0 0 M0.17 7.04 C-0.19 3.85, 4.19 3.27, 3.47 -0.02 M-0.15 7 C2.3 4.52, 2.62 2.85, 5.25 -0.18 M-2.21 15 C5.89 4.73, 10.04 2.21, 7.86 3.14 M-0.71 13.37 C3 8.32, 9.27 2.22, 11.75 1.02 M3.28 18.92 C5.34 15, 10.2 6.02, 14.72 -0.92 M1.54 17.29 C2.29 12.34, 5.63 9.33, 15.64 0.23 M1.88 25.8 C7.02 18.06, 13.4 7.16, 25.13 -2.3 M1.11 25.35 C7.31 19.22, 9.79 14.57, 19.45 1.76 M-1.82 29.78 C5.96 23.9, 17.19 10.74, 28.01 -0.27 M-1.13 30.08 C7.48 19.62, 18.36 11.03, 26.82 0.29 M-1.77 38.03 C7.09 26.32, 25.13 8.64, 28.52 -3.84 M0.9 38.87 C10.74 23.89, 23.13 10.92, 31.79 -0.34 M-2.95 43.78 C8.03 32.18, 18.25 22.4, 40.12 1.06 M1.34 43.58 C8.92 32.39, 17.26 23.75, 38.79 2.21 M-1.39 46.62 C8.08 36.24, 19.24 27.42, 39.86 -0.46 M1.36 49.79 C12.2 36.97, 21.39 22.72, 40.91 1.74 M2.45 57.14 C10.29 37.7, 28.07 22.68, 49.09 3.78 M-1.2 54.55 C19.98 36.97, 35.53 16.29, 47.65 0.53 M-3.58 57.03 C17.09 41.17, 35.16 13.9, 56.71 1.03 M-0.08 59.38 C12.84 44.36, 28.09 32.09, 51.16 -1.7 M0.58 66.28 C18.81 41.58, 39.13 17.72, 59.96 1.59 M2.27 66.51 C23.69 43.03, 44.87 15.46, 58.01 1.26 M6.6 68.18 C21.39 51.73, 31.52 35.4, 67.63 2.83 M5.1 64.88 C18.96 51.31, 31.98 38.72, 63.4 -0.91 M9.17 66.86 C26.98 47.73, 38.24 37.16, 68.8 -2.82 M11.78 64.68 C32.28 45.48, 51.99 22.06, 66.96 1.94 M19.89 64.27 C31.39 45.55, 52.07 32.18, 76.14 0.15 M14.69 67.31 C26.69 53.72, 41.31 37.95, 74.96 1.4 M25.92 69.39 C43.5 40.88, 63.88 15.26, 77.97 3.03 M20.85 67.63 C38.88 47.79, 52.36 28.35, 79.45 0.32 M30.74 66.29 C44.78 46.07, 60.55 32.07, 78.9 3.98 M27.69 66.99 C40.4 54.4, 54.45 38.35, 77.81 4.78 M33.39 66.08 C43.83 49.4, 60.37 31.96, 80.36 10.4 M33.31 66.16 C40.89 53.43, 51.01 42.37, 80.39 11.52 M37.21 66.95 C49.5 48.02, 66.41 31.27, 78.11 18.77 M36.21 66.43 C51.46 50.49, 62.41 33.62, 78.94 20.76 M45.11 66.14 C54.38 61.26, 58.76 52.51, 78.84 21.66 M45.54 66.52 C54.92 51.24, 67.23 36.74, 78.24 24.22 M52.33 67.95 C59.57 57.27, 66.52 45.95, 80.21 27.94 M48.85 67.66 C54.72 55.91, 61.84 48.92, 79.12 30.32 M57.64 63.76 C60.31 62.04, 64.57 49.22, 81.46 35.53 M54.37 66.5 C57.83 59.68, 65.84 52.54, 80.09 37.95 M56.16 63.99 C67.24 59.44, 68.16 53.4, 76.11 39.44 M58.71 64.2 C66.01 59.77, 69.62 50.44, 77.04 41.49 M66.53 62.14 C71.6 59.13, 71.02 55.33, 78.62 52.46 M65.15 67.37 C68.97 63.01, 71.49 58.82, 76.88 48.5 M68.36 66.54 C74.23 60.8, 78.08 61.08, 79.95 54.06 M70.92 65.36 C71.94 63.06, 73.51 59.8, 80.09 56.55 M75.18 65.58 C76.74 63.62, 77.46 62.69, 78.48 62.29 M75.54 65.68 C76.47 64.38, 78.02 62.31, 78.57 61.59" stroke="#868e96" stroke-width="0.5" fill="none"></path><path d="M3.96 -3.87 C26.08 -0.56, 52.09 -0.54, 76.55 -0.22 M-0.85 -0.12 C16.43 -2.96, 32.67 -1.12, 79.59 1.06 M80.52 3.84 C80.4 16.78, 82.07 27.04, 74.53 65.76 M79.96 1.54 C76.65 20.16, 77.09 36.84, 79.6 63.1 M81.8 67.11 C52.12 64.34, 35.07 62.87, 2.92 67.68 M76.45 64.24 C55.69 65.08, 35.57 64.99, 1.7 63.96 M2.63 65.45 C-3.3 45.13, -1.71 21.7, 1.03 1.62 M1.82 66.84 C-0.61 52.63, 0.25 38.17, -0.61 0.72" stroke="#000" stroke-width="1" fill="none"></path></g><g stroke-linecap="round"><g transform="translate(138.42389917626866 329.2936289190613) rotate(0 -42.65081347788612 16.539704414272308)"><path d="M0 0 C0 -4.97, 0 -9.95, 0 -13.22 M0 0 C0 -3.43, 0 -6.86, 0 -13.22 M0 -13.22 C-18.33 -13.2, -36.65 -13.19, -46.13 -13.19 M0 -13.22 C-11.73 -13.21, -23.45 -13.2, -46.13 -13.19 M-46.13 -13.19 C-48.24 -17.47, -50.35 -21.75, -52.58 -26.28 M-46.13 -13.19 C-48.2 -17.38, -50.27 -21.58, -52.58 -26.28 M-52.58 -26.28 C-64.65 -26.33, -76.72 -26.38, -85.5 -26.42 M-52.58 -26.28 C-59.66 -26.31, -66.75 -26.34, -85.5 -26.42 M-85.5 -26.42 C-85.56 2.79, -85.62 32.01, -85.67 59.44 M-85.5 -26.42 C-85.57 7.51, -85.64 41.44, -85.67 59.44 M-85.67 59.44 C-64.55 59.46, -43.43 59.47, 0.27 59.5 M-85.67 59.44 C-62.47 59.46, -39.27 59.48, 0.27 59.5 M0.27 59.5 C0.29 51.33, 0.31 43.16, 0.37 19.54 M0.27 59.5 C0.3 49.5, 0.32 39.5, 0.37 19.54" stroke="#000" stroke-width="4" fill="none"></path></g></g><g transform="translate(48.27308569838277 394.3333333333334) rotate(0 47.5 12)"><text x="47.5" y="19" font-family="Roboto Mono, monospace" font-size="20px" fill="#000" text-anchor="middle" style="white-space: pre;" direction="ltr">_layouts</text></g><g stroke-linecap="round" transform="translate(58.27308569838294 481.3333333333341) rotate(0 39 32.49999999999997)"><path d="M0 0 C0 0, 0 0, 0 0 M0 0 C0 0, 0 0, 0 0 M-1.52 5.03 C0.78 3.82, 2.13 1.52, 4.14 0.22 M-0.58 6.8 C1.81 5.2, 3.3 3.5, 5.49 0.3 M-0.73 9.12 C2.86 10.12, 8.41 1.82, 8.9 0.78 M1.14 10.5 C1.96 7.76, 5.1 7.24, 12.05 -0.11 M2.2 17.23 C8.13 8.62, 6.66 3.7, 18.51 -2.97 M-1 18.53 C1.66 13.94, 5.47 8.98, 13.83 1.2 M3.22 27.26 C5.93 14.72, 17.17 3.46, 20.74 -3.63 M1.74 24.65 C5.96 17.8, 13.49 10.91, 22.71 1.45 M-3.27 32.24 C6.18 24.07, 13.62 20.18, 26.35 1.16 M-1.55 29.52 C4.43 21.39, 11.56 14.05, 25.1 -0.05 M-2.63 38.56 C9.69 21.62, 23.47 13.28, 29.2 -0.49 M0.38 34.93 C11.05 24, 21.98 10.82, 33.14 1.03 M-0.13 41.58 C7.27 33.21, 19.63 15.6, 34.6 1.46 M-1.71 42.73 C15.37 23.73, 29.99 7.17, 38.81 1.07 M3.03 49.83 C13.45 37.24, 28.57 19.16, 42.54 -1.03 M-0.6 50.04 C11.31 33.51, 25.35 23.21, 42.2 -0.54 M0.34 53.78 C6.01 46.92, 19.75 33.76, 44.46 1.96 M-0.95 53.02 C14.1 37.96, 31.75 19.77, 49.24 1.65 M0.73 61.86 C20.38 44.16, 32.74 22.07, 54.48 -1.73 M-1.58 61.85 C15.21 42.59, 33.7 21.1, 51.93 -1.9 M4.49 67.65 C15.57 48.3, 31.54 27.71, 58.14 -2.29 M1.42 66.98 C22.03 42.44, 39.51 23.45, 58.15 -0.69 M2.59 66.91 C15.51 53.53, 29.5 42.01, 67.7 -0.02 M7.11 67.14 C29.43 42.75, 52.74 13.64, 63.85 -1.2 M12.21 63.16 C29.25 50.39, 48.16 28.13, 70.83 -1.24 M10.1 65.9 C32.48 44.74, 51.62 21.65, 66.83 0.14 M14.5 64.55 C30.79 54.53, 41.76 35.17, 77.92 -2.37 M15.44 67.55 C28.88 50.6, 44.82 32.36, 74.98 -0.08 M21.36 65.17 C36.33 41.88, 54.98 27.15, 78.09 -1.09 M22.27 65.44 C40.39 47.65, 53.99 30.26, 79.39 -0.5 M24.07 65.09 C36.39 56.75, 45.88 46.66, 75.93 6.57 M25.58 64.95 C38.63 53.15, 50.96 41.22, 79.94 7.08 M32.64 62.25 C48.88 48.38, 62.23 36.79, 75.94 16.77 M32.46 66.47 C49.12 49.44, 63.52 29.08, 78.91 11.06 M40.5 64.58 C47.53 51.35, 59.61 39.74, 76.09 17.59 M39.82 64.45 C47.89 52.83, 61.41 37.92, 79.41 18.9 M39.76 65.93 C51.81 57.57, 58.8 48.35, 80.41 24.07 M42.69 66.34 C52.1 53.11, 65.43 38.41, 79.02 23.1 M49.99 66.08 C56.4 55.3, 59.09 48.9, 75.01 30.44 M47.92 67.64 C58.63 55.83, 65.67 50.31, 78.82 32.43 M53.43 62.75 C57.1 57.52, 63.63 50.13, 82.71 34.86 M54.48 66.88 C62.72 53.76, 72.91 44.28, 78.99 35.71 M55.75 63.62 C66.24 61.97, 75.76 53.66, 79.74 43.43 M59.16 64.63 C65.02 59.03, 72.49 47.57, 80.54 44.78 M61.34 62.28 C66.77 61.16, 68.5 57.85, 82.38 46.93 M64.86 66.47 C66.25 62.5, 69.42 56.97, 76.93 50.26 M69.94 66.19 C74.72 64.13, 76.68 56.81, 81.79 53.8 M70.16 66.01 C71.12 63.8, 73.67 60.58, 79.06 56.39 M75.65 65.47 C76.95 64.81, 76.39 64.14, 79.55 62.08 M75.19 65.19 C76.72 64.4, 77.72 63.29, 79.17 61.96" stroke="#868e96" stroke-width="0.5" fill="none"></path><path d="M-0.35 -3.57 C22.81 2.38, 43.16 -0.46, 79.96 0.84 M-0.91 1.97 C21.39 2.16, 38.81 -0.74, 76.73 -1.89 M76.84 -0.67 C79.45 22.18, 79.74 42.11, 78.67 66.67 M76.86 -0.43 C77.9 14.38, 80.53 28.9, 78.72 64.22 M76.97 61.53 C43.78 64.6, 15.36 64.66, 1.28 67.26 M78.09 63.12 C61.07 63.64, 44.86 63.7, -1.81 66.81 M1.59 65.62 C-1.2 47.9, 0.78 30.35, 1.88 3.65 M1.11 64.96 C2.67 51.92, 3.09 36.07, 0.67 0.5" stroke="#000" stroke-width="1" fill="none"></path></g><g stroke-linecap="round"><g transform="translate(138.4238991762689 488.2936289190613) rotate(0 -42.65081347788612 16.539704414272308)"><path d="M0 0 C0 -4.89, 0 -9.78, 0 -13.22 M0 0 C0 -3.67, 0 -7.34, 0 -13.22 M0 -13.22 C-13.9 -13.21, -27.79 -13.2, -46.13 -13.19 M0 -13.22 C-18.3 -13.2, -36.61 -13.19, -46.13 -13.19 M-46.13 -13.19 C-47.48 -15.93, -48.83 -18.67, -52.58 -26.28 M-46.13 -13.19 C-48.35 -17.69, -50.57 -22.2, -52.58 -26.28 M-52.58 -26.28 C-63.4 -26.32, -74.22 -26.37, -85.5 -26.42 M-52.58 -26.28 C-59.68 -26.31, -66.78 -26.34, -85.5 -26.42 M-85.5 -26.42 C-85.55 -1.09, -85.6 24.25, -85.67 59.44 M-85.5 -26.42 C-85.57 6.3, -85.63 39.02, -85.67 59.44 M-85.67 59.44 C-51.67 59.47, -17.66 59.49, 0.27 59.5 M-85.67 59.44 C-65.61 59.46, -45.54 59.47, 0.27 59.5 M0.27 59.5 C0.29 50.73, 0.32 41.95, 0.37 19.54 M0.27 59.5 C0.31 45.93, 0.34 32.37, 0.37 19.54" stroke="#000" stroke-width="4" fill="none"></path></g></g><g transform="translate(60.273085698383 553.3333333333334) rotate(0 35.5 12)"><text x="35.5" y="19" font-family="Roboto Mono, monospace" font-size="20px" fill="#000" text-anchor="middle" style="white-space: pre;" direction="ltr">assets</text></g><g stroke-linecap="round" transform="translate(58.27308569838294 633.3333333333338) rotate(0 39 32.5)"><path d="M0 0 C0 0, 0 0, 0 0 M0 0 C0 0, 0 0, 0 0 M0.1 6.86 C2.8 5.78, 3.12 2.37, 4.63 -0.05 M0.19 6.21 C0.56 5.47, 3.3 2.91, 4.83 -0.37 M-0.49 9.05 C6.47 8.11, 8.52 1.51, 12.02 0.72 M-1.1 10.82 C3.68 9.3, 6.28 6.45, 11.77 -0.08 M0.77 22.21 C4.3 14.49, 4.06 11.24, 14.06 1.02 M0.76 17.23 C5.77 13, 8.99 5.26, 13.89 -0.31 M2.07 24.27 C7.76 15.49, 12.69 5.57, 18.78 1.23 M1.4 25.91 C4.64 17.39, 13.51 10.14, 20.38 -2.04 M0.71 28.54 C9.4 21.81, 19.56 15.74, 26.43 4.17 M0.94 30.89 C10.22 22.08, 15.23 12.41, 25.26 0.26 M-2.91 36.9 C12.19 29, 17.93 19.52, 30.49 1.5 M-0.17 38.74 C11.48 26.52, 21.55 10.55, 31.88 -1.38 M-1.49 43.26 C15.72 27.53, 23.74 19.48, 34.75 -2.01 M1.52 41.45 C13.75 28.67, 24.83 13.28, 37.03 0.52 M-0.73 45.88 C11.17 30.04, 31.57 14.4, 40.55 -0.58 M-0.46 49.78 C10.2 35.78, 21.41 26.93, 41.15 -2.09 M-0.78 52.06 C12.82 40.53, 24.61 29.52, 47.56 -3.32 M-0.91 54.92 C14.03 40.8, 28.88 23.58, 48.07 0.23 M-3.49 62.18 C10.03 48.79, 25.64 32.05, 57 1.7 M0.74 61.56 C19.89 39.92, 35.57 20.49, 51.3 -0.64 M-0.46 64.9 C20.36 40.27, 43.18 13.12, 56.42 -0.54 M-0.59 64.08 C16.31 47.15, 30.17 29.74, 57.73 -1.33 M6.26 66.2 C22.6 48.8, 37.77 33.62, 62.9 0.03 M6.67 64.57 C27.45 42.14, 47.33 15.84, 61.92 -2.01 M11.7 66.92 C22.14 46.93, 36.87 29.81, 67.86 -1.48 M13.26 67.38 C22.43 53.65, 37.49 39.63, 69.85 -1.38 M13.76 63.67 C34.03 42.9, 52.12 26.06, 72.27 3.12 M17.89 65.07 C32.85 46.04, 51.33 26.86, 73.13 0.33 M19.91 66.13 C40.44 54.04, 53.57 35.4, 78.78 3.82 M20.92 64.66 C45.62 39.41, 64.69 16.7, 80.13 -0.9 M23.95 65.05 C40.48 48.84, 54.37 38.95, 76.28 3.46 M28.13 64.64 C46.9 43.64, 63.24 22.28, 79.61 7.18 M33.21 68.24 C47.84 52.84, 54.4 42.09, 76.53 12.13 M32.97 63.95 C48.58 47.13, 62.61 32.46, 80.24 12.46 M37.38 68.56 C52.94 45.92, 68.87 35.99, 79.61 19.01 M36.27 67.04 C47.03 57.04, 56.21 47.03, 79.12 19.32 M43.66 63.95 C56.66 48.45, 71.61 34.28, 82.52 23.34 M44.53 64.78 C52.71 57.37, 60.66 48.54, 77.37 24.64 M45.6 65.41 C61.41 59.15, 64.32 41.28, 75.23 30.68 M49.64 67.54 C59.82 55.14, 70.55 41.12, 79.18 30.99 M50.3 68.98 C65.37 53.65, 67.98 45.94, 75.29 33.64 M55.18 66.15 C63.6 53.5, 71.27 44.58, 77.37 36.41 M63.16 63.79 C66.49 57.83, 70.74 57.64, 80.53 43.92 M60.11 64.93 C67.65 59.96, 73.63 51.96, 77.22 43.45 M67.17 68.01 C69.75 57.48, 72.24 55.6, 79.71 49 M65.05 66.61 C67.29 59.9, 72.61 54.7, 77.95 48.82 M71.08 65.23 C74.85 64.7, 73.09 59.89, 80.08 56.13 M68.56 65.62 C72.39 61.86, 77.4 58.15, 79.59 56.34 M75.44 64.89 C76.16 64.24, 76.42 64.61, 79.48 60.9 M75.28 65.25 C76.64 64.3, 77.94 62.37, 78.88 61.4" stroke="#868e96" stroke-width="0.5" fill="none"></path><path d="M-1.21 2.92 C20.37 -4.84, 45.6 1.98, 74.7 -2.47 M0.09 -1.64 C30.26 -0.9, 59.96 -1.1, 78.87 1.62 M81.18 -2.81 C76.53 13.48, 74.46 25.57, 74.43 65.17 M78.57 -0.47 C79.67 23.14, 80.12 46.39, 79.52 63.42 M79.76 65.33 C55.66 65.69, 35.56 63.83, 0.87 63.26 M77.04 63.27 C46.16 62.45, 15.66 62.64, -0.34 66.01 M1.69 63.54 C-2.07 47.79, 2.56 25.8, -0.38 2.55 M-1.94 64.62 C1.06 44.32, 1.33 27.16, 1.13 -0.38" stroke="#000" stroke-width="1" fill="none"></path></g><g stroke-linecap="round"><g transform="translate(138.4238991762689 640.2936289190612) rotate(0 -42.65081347788612 16.539704414272308)"><path d="M0 0 C0 -4.17, 0 -8.34, 0 -13.22 M0 0 C0 -4.36, 0 -8.72, 0 -13.22 M0 -13.22 C-10.31 -13.21, -20.62 -13.2, -46.13 -13.19 M0 -13.22 C-15.45 -13.21, -30.91 -13.2, -46.13 -13.19 M-46.13 -13.19 C-48.41 -17.82, -50.69 -22.45, -52.58 -26.28 M-46.13 -13.19 C-48.55 -18.11, -50.98 -23.03, -52.58 -26.28 M-52.58 -26.28 C-61.3 -26.32, -70.02 -26.35, -85.5 -26.42 M-52.58 -26.28 C-60.01 -26.31, -67.45 -26.34, -85.5 -26.42 M-85.5 -26.42 C-85.57 6.99, -85.64 40.4, -85.67 59.44 M-85.5 -26.42 C-85.56 0.17, -85.61 26.76, -85.67 59.44 M-85.67 59.44 C-52.85 59.47, -20.02 59.49, 0.27 59.5 M-85.67 59.44 C-55.25 59.46, -24.83 59.49, 0.27 59.5 M0.27 59.5 C0.3 48.61, 0.33 37.72, 0.37 19.54 M0.27 59.5 C0.3 50.05, 0.32 40.6, 0.37 19.54" stroke="#000" stroke-width="4" fill="none"></path></g></g><g transform="translate(77.773085698383 705.3333333333334) rotate(0 18 12)"><text x="18" y="19" font-family="Roboto Mono, monospace" font-size="20px" fill="#000" text-anchor="middle" style="white-space: pre;" direction="ltr">bin</text></g><g stroke-linecap="round" transform="translate(215.50000000000114 708.3333333333338) rotate(0 39 32.5)"><path d="M0 0 C0 0, 0 0, 0 0 M0 0 C0 0, 0 0, 0 0 M-0.25 4.91 C-0.04 3.6, 2.92 3.11, 4.99 0.8 M-1.01 6.22 C0.6 4.42, 1.57 3.66, 5.62 0.99 M0.25 13.77 C-0.1 10.16, 4.61 5.9, 8.29 -2.04 M1.56 11.19 C4.26 8.99, 5.38 6.21, 11.6 -0.91 M-0.44 15.87 C5.05 11.73, 4.56 5.8, 13.21 0.67 M0.3 18.46 C6.96 13.28, 11.88 4.61, 14.21 -0.79 M3.58 26.86 C4.89 13.96, 14.4 2.66, 17.9 -1.16 M2.15 22.65 C4.65 18.8, 9.93 11.26, 22.09 -1.57 M-3.38 31.42 C9.83 20.12, 13.82 12.56, 26.51 2.79 M1.99 29.31 C8.78 20.48, 18.14 9.99, 26.27 -1.5 M-0.12 39.61 C10.84 25.8, 25.54 11.31, 31.33 2.36 M1.35 37.38 C10.81 22.81, 20.73 10.99, 30.22 0.83 M3.48 43.54 C9.8 34.05, 22.65 20.91, 36.96 -1.5 M-0.22 44.28 C11.1 27.46, 22.07 17.11, 37.82 -0.68 M2.54 45.65 C13.13 31.82, 26.42 16.93, 39.56 -0.8 M-2.08 47.16 C15.25 31.38, 33.73 12.12, 43.6 1.33 M-0.3 55.42 C15.66 34.6, 31.12 13.53, 43.6 3.52 M-0.97 52.63 C17.56 35.06, 37.91 15.34, 48.48 0.7 M-2.05 57.43 C18.77 36.29, 40.06 15.52, 57.12 -2.42 M0.81 61.78 C21.23 38.1, 41.19 15.83, 54.06 -1.28 M4.47 62.52 C22.1 43.45, 42.05 12.94, 60.47 2.56 M2.25 66.4 C17.45 47.82, 34.61 31.51, 58.34 1.16 M2.06 64.86 C18.62 49.98, 37.29 31.49, 65.56 -1.31 M6.03 66.97 C28.17 42.95, 49.08 15.27, 61.97 -0.74 M12.53 67.47 C26.99 47.44, 38.52 38.76, 68.62 -2.7 M12.97 67.27 C27.74 48.4, 45.42 26.29, 68.01 -1.28 M14.61 67.17 C27.92 48.54, 47.52 31.93, 77.44 -3.26 M14.87 64.26 C33.83 45.47, 53.46 24.63, 76.17 0.72 M22.59 63.8 C38.77 47.07, 58.18 25.65, 79.45 -0.78 M24.2 66.35 C40.81 46.05, 55.24 29.03, 77.93 -0.34 M31.05 68.32 C44.42 51.37, 60.6 29.15, 82.39 9.73 M25.83 66.46 C47.46 43.6, 66.35 21.02, 80.12 7.18 M34.18 66.71 C43.53 50, 55.4 41.55, 78.82 14.57 M31.29 66.92 C49.02 50.05, 60.36 29.19, 80.52 11.57 M34.44 68.04 C52.47 49.66, 62.71 37.15, 75.62 17.11 M38.52 64.58 C45.83 57.29, 54.47 45.22, 80.31 18.64 M45.86 68.4 C50.56 54.83, 58.56 46.86, 78.61 28.75 M42.11 63.74 C56.21 49.65, 68.19 36.06, 79.72 23.66 M46.81 67.01 C54.72 60.17, 64.57 48.43, 80.58 33.27 M49.04 65.17 C56.57 55.05, 63.15 48.9, 77.01 32.6 M55.18 62.08 C65.75 59.65, 75.25 46.7, 79.87 39.46 M52.99 67.09 C60.92 56.29, 67.66 51.61, 78.12 35.93 M57.21 66.95 C70.18 58.9, 70.15 52.46, 81.15 41.19 M57.99 66.22 C62.99 59.93, 70.08 54.3, 80.41 41.58 M66.68 65.95 C72.29 58.06, 73.54 58.65, 81.99 46.15 M64.78 66.74 C70.16 59.9, 73.16 56.84, 78.19 48.69 M69.73 63.58 C70.93 61.81, 76.99 56.82, 77.53 55.88 M70.28 65.5 C73.94 61.11, 76.06 58.33, 78.2 56.43 M75.58 66.01 C76.5 64.9, 78.09 62.95, 78.4 62.13 M75.32 65.19 C76.64 63.97, 77.17 63.56, 78.27 62.23" stroke="#7950f2" stroke-width="0.5" fill="none"></path><path d="M1.14 0.31 C24.52 3.39, 49.92 0.54, 77.4 -3.04 M-0.32 -0.98 C17.25 -2.38, 32.96 -1.04, 77.67 0.86 M79.29 -2.74 C72.9 14.22, 73 32.57, 76.95 62.5 M76.39 0.03 C75.09 22.24, 78.2 42.77, 76.81 65.36 M79.61 66.13 C53.4 62.3, 26.19 65.47, -3.5 66.22 M76.53 66.93 C59.61 66.52, 38.37 65.36, 0.73 65.61 M0.08 61.3 C-0.34 43.51, 3.79 18.44, -1.52 -0.95 M-1.26 64.14 C-0.33 46.84, 0.94 31.64, -1.66 -1.77" stroke="#000" stroke-width="1" fill="none"></path></g><g stroke-linecap="round"><g transform="translate(295.650813477886 715.2936289190612) rotate(0 -42.65081347788612 16.539704414272308)"><path d="M0 0 C0 -4.51, 0 -9.02, 0 -13.22 M0 0 C0 -3.29, 0 -6.58, 0 -13.22 M0 -13.22 C-9.61 -13.21, -19.22 -13.2, -46.13 -13.19 M0 -13.22 C-9.8 -13.21, -19.6 -13.2, -46.13 -13.19 M-46.13 -13.19 C-48.62 -18.24, -51.11 -23.3, -52.58 -26.28 M-46.13 -13.19 C-48.19 -17.37, -50.25 -21.55, -52.58 -26.28 M-52.58 -26.28 C-60.95 -26.31, -69.31 -26.35, -85.5 -26.42 M-52.58 -26.28 C-62.37 -26.32, -72.15 -26.36, -85.5 -26.42 M-85.5 -26.42 C-85.56 0.57, -85.61 27.57, -85.67 59.44 M-85.5 -26.42 C-85.55 -2.73, -85.6 20.97, -85.67 59.44 M-85.67 59.44 C-56.2 59.46, -26.72 59.48, 0.27 59.5 M-85.67 59.44 C-65.36 59.46, -45.04 59.47, 0.27 59.5 M0.27 59.5 C0.31 45.95, 0.34 32.39, 0.37 19.54 M0.27 59.5 C0.3 49.06, 0.32 38.61, 0.37 19.54" stroke="#000" stroke-width="4" fill="none"></path></g></g><g transform="translate(229.0000000000009 780.3333333333334) rotate(0 24 12)"><text x="24" y="19" font-family="Roboto Mono, monospace" font-size="20px" fill="#000" text-anchor="middle" style="white-space: pre;" direction="ltr">data</text></g><g stroke-linecap="round" transform="translate(217.50000000000114 565.3333333333347) rotate(0 39 32.5)"><path d="M0 0 C0 0, 0 0, 0 0 M0 0 C0 0, 0 0, 0 0 M-0.63 7.27 C2.47 4.6, 3.02 3.28, 5.45 -1.02 M-0.32 5.81 C1.25 3.71, 2.83 2.31, 4.79 0.79 M0.15 14.4 C5.01 9.84, 5.73 3.99, 10.95 -1.45 M-0.51 10.79 C2.9 8.54, 8.34 2.59, 11.25 0.86 M-0.77 18.32 C3.25 14.08, 7.47 5.6, 19.19 3.96 M-0.47 19.47 C5.52 15.27, 8.79 11.57, 16.8 1.86 M-0.47 24.24 C5.78 13.76, 11.75 9.66, 24.52 -3.55 M-1.41 24.92 C6.62 20.11, 12.35 12.53, 22.32 -1.99 M-1.16 27.49 C9.82 19.41, 20.56 9.96, 29.26 -3.02 M0.27 31.32 C9.76 20.59, 20.13 6.78, 28.04 2.25 M-0.15 40.64 C8.26 23.22, 24.07 13.75, 31.19 -2.1 M-0.65 36.37 C6.66 30.7, 12.96 22.2, 30.66 -1.25 M-1.81 42.29 C15.51 26.56, 25.92 15.03, 40.42 2.66 M0.64 44.25 C7.54 32.4, 15.16 22.34, 35.31 0.15 M2.46 45.39 C15.05 34.9, 27.35 13.71, 42.59 -2.26 M-1.99 50.85 C8.88 35.22, 20.59 21.45, 41.77 0.56 M-3.17 53.92 C14.29 40.19, 28.72 22.72, 47.7 0.71 M-0.01 53.53 C14.91 40.16, 26.8 29.07, 48.21 0.57 M-2.23 62.95 C9.08 51.27, 22.47 34.72, 53.27 0.18 M1.53 60.14 C10.1 48.21, 22.82 30.94, 53.5 0.22 M1.97 69.83 C16.69 47.24, 35.52 31.13, 61.15 3.83 M2.85 65.2 C17.67 48.23, 31.83 33.18, 56.86 0.04 M5.71 63.23 C25.51 44.91, 43.93 23.48, 64.76 2.41 M7.9 67.96 C24.64 41.48, 47.19 20.01, 64.2 -2 M12.33 64.66 C29.69 44.72, 47.9 19.27, 65.82 1.73 M10.74 66.94 C22.33 51.9, 38.09 37.15, 67.84 -1.42 M14.03 65.43 C28.11 48.82, 47.14 32.81, 77.63 2.65 M16.42 65.85 C35.17 46.74, 56.89 21.69, 72.73 1.68 M22.62 67.92 C48.59 38.04, 68.83 16.69, 77.11 1.86 M22.67 63.86 C39.03 46.62, 56.09 26.33, 79.6 0.46 M30.18 69.56 C42.43 54.05, 50.9 42.9, 77.5 6.88 M27.61 64.62 C48.71 43.54, 67.19 18.13, 80.53 5.31 M36.39 66.83 C41.62 54.72, 59.79 35.68, 76.87 14.5 M32 65.23 C47.86 50.17, 61.2 33.83, 78.56 11.29 M41.21 63.3 C54.31 49.7, 73.26 25.14, 79.59 22.57 M39.04 65.29 C46.56 56.61, 55.47 43.93, 80.11 18.93 M40.18 65.58 C57.26 49.41, 68.13 36.31, 80.99 21.02 M44.58 63.83 C51.01 55.88, 58.69 48.37, 78.66 26.26 M49.16 67.36 C59.02 55.24, 61.59 50.3, 79.35 28.1 M48.85 64.38 C57.11 56.42, 66.98 45.02, 77.73 30.01 M51.55 69.38 C64.38 53.36, 76.96 46.06, 78.52 39.13 M54.75 63.92 C61.47 58.22, 65.04 52.48, 80.51 35.39 M63.08 63.45 C66.91 63.38, 68.28 58.12, 80.66 42.46 M59.61 65.91 C63.25 62.08, 66.01 58.04, 77.58 45.08 M63.04 68.44 C73.42 63.55, 75.33 50.66, 80.84 48.28 M65.38 65.28 C68.44 63.24, 69.86 60.49, 80.54 48.97 M67.86 66.19 C71.44 63.05, 72.46 60.94, 79.06 53.61 M70.25 65.59 C72.4 62.19, 76.07 60.66, 80.41 56.82 M75.15 64.69 C75.93 64.22, 77.12 64.16, 78.15 61.04 M75.55 66 C76.53 64.27, 77.65 62.57, 78.48 62" stroke="#7950f2" stroke-width="0.5" fill="none"></path><path d="M-3.6 -2.3 C16.25 2.87, 33.48 2.55, 74.45 -2.54 M-0.82 -1.94 C17.02 -0.29, 37.94 1.92, 76.41 0.78 M74.94 1.22 C77.98 24.84, 75.13 48.73, 76.25 63.45 M79.68 -0.13 C78.87 15.32, 80.37 28.99, 77.03 64.52 M79.13 62.93 C49.12 60.55, 24.46 64.35, 3.04 68.4 M79.47 66.82 C50.84 64.97, 21.34 63.9, 1.55 63.99 M-3.54 63.69 C-3.03 46.69, -4.44 34.3, -1.26 -2.28 M-1.53 66.07 C-3.11 47.5, -0.4 28.47, 0.15 -1.41" stroke="#000" stroke-width="1" fill="none"></path></g><g stroke-linecap="round"><g transform="translate(297.650813477886 572.2936289190612) rotate(0 -42.65081347788612 16.539704414272308)"><path d="M0 0 C0 -3.97, 0 -7.95, 0 -13.22 M0 0 C0 -2.73, 0 -5.46, 0 -13.22 M0 -13.22 C-14.01 -13.21, -28.02 -13.2, -46.13 -13.19 M0 -13.22 C-17.95 -13.2, -35.9 -13.19, -46.13 -13.19 M-46.13 -13.19 C-48.01 -17.01, -49.9 -20.84, -52.58 -26.28 M-46.13 -13.19 C-48.2 -17.39, -50.28 -21.6, -52.58 -26.28 M-52.58 -26.28 C-65.18 -26.33, -77.79 -26.39, -85.5 -26.42 M-52.58 -26.28 C-65.55 -26.33, -78.53 -26.39, -85.5 -26.42 M-85.5 -26.42 C-85.54 -7.93, -85.58 10.56, -85.67 59.44 M-85.5 -26.42 C-85.57 7.85, -85.64 42.12, -85.67 59.44 M-85.67 59.44 C-59.6 59.46, -33.53 59.48, 0.27 59.5 M-85.67 59.44 C-53.01 59.47, -20.34 59.49, 0.27 59.5 M0.27 59.5 C0.31 44.17, 0.35 28.84, 0.37 19.54 M0.27 59.5 C0.3 48.23, 0.33 36.95, 0.37 19.54" stroke="#000" stroke-width="4" fill="none"></path></g></g><g transform="translate(237.0000000000009 637.3333333333334) rotate(0 18 12)"><text x="18" y="19" font-family="Roboto Mono, monospace" font-size="20px" fill="#000" text-anchor="middle" style="white-space: pre;" direction="ltr">fig</text></g><g stroke-linecap="round" transform="translate(218.50000000000045 844.3333333333337) rotate(0 39 32.5)"><path d="M0 0 C0 0, 0 0, 0 0 M0 0 C0 0, 0 0, 0 0 M-1.6 7.07 C1.68 6.42, 3.3 3.77, 5.83 -1.17 M-0.49 5.8 C1.7 4.18, 3.85 2.29, 5.59 -0.3 M0.55 13.38 C4.36 9.9, 9.28 1.23, 13.49 3.11 M0.18 13.55 C2.75 7.49, 8.25 4.66, 10.35 -0.83 M-0.92 17.42 C4.22 18.04, 6.66 12.72, 13.15 -1.97 M-1.1 18.33 C6.67 11.39, 11.05 6.58, 17.39 1.53 M1.26 27.53 C3.04 18.08, 6.27 11.78, 18.12 -0.28 M1.56 22.32 C7.75 17.2, 13.79 6.73, 21.3 -1.13 M-3.73 34.34 C3.59 21.55, 11.7 11.59, 24.74 1.69 M-1.71 30.16 C7.74 22.49, 15.64 12.96, 26.34 0.53 M-0.81 34.82 C12.03 24.94, 20.13 20.79, 33.3 0.59 M-1.38 37.87 C5.42 30.77, 13.26 21.18, 31.95 0.07 M3.17 40.88 C5.62 36.08, 14.85 20.18, 37.57 1.04 M0.59 44.51 C10.1 30.45, 21.85 19.71, 38.38 2.08 M3.46 47.61 C13.82 34.68, 24.09 25.33, 39.96 -0.44 M-0.29 47.43 C14.08 32.94, 27.87 16.96, 43.01 1.17 M3.98 58.07 C13.47 32.01, 35.88 15.18, 48.35 -3.36 M0.59 53.98 C15.88 36.66, 31.22 16.77, 46.04 1.01 M-1.89 63.21 C8.29 47.63, 26.41 33.56, 51.29 -3.33 M-1.31 60.59 C12.06 44.31, 28.22 28.66, 54.76 1.27 M0.55 65.21 C17.58 48.24, 41.53 20.55, 54.77 4.02 M1.21 66.92 C25.77 38.86, 47.18 15.21, 57.32 0.68 M6.75 62.37 C22.28 47.52, 38.91 27.07, 65.49 -1.03 M7.49 67.92 C20.54 52.56, 31.88 38.81, 62.96 -0.02 M12.29 62.78 C35.78 42.04, 54.7 11.99, 71.56 -2.25 M13.41 66.35 C25.35 49.88, 43.36 30.08, 67.76 0.94 M14.78 65.15 C36.33 46.24, 53.33 24.71, 73.78 -3.49 M18.31 64.77 C39.36 40.79, 63.72 11.39, 74.9 1.39 M24.54 64.15 C34.06 53.38, 46.37 34.35, 81.74 0.11 M20.62 65.71 C43.75 41.55, 63.73 18.26, 79.73 -1.1 M29.3 62.37 C37.88 51.45, 48.8 41.53, 78.44 9.12 M27.6 66.79 C41.28 50.26, 51.41 37.62, 79.44 4.89 M33.51 62.36 C45.12 51.75, 60.05 34.48, 76.84 10.23 M31.62 67.6 C51.26 44.7, 70.56 26.09, 78.56 13.98 M39.02 62.59 C50.09 54, 54.9 45.21, 81.34 16.1 M39.88 64.81 C48.65 57.56, 56.08 47.18, 79.5 18.84 M44.4 65.47 C50.83 58.79, 55.57 51.64, 76.41 28.32 M42.68 67.11 C59.21 52.38, 71.01 33.46, 80.12 24.2 M49.64 65.35 C56.26 60.66, 59.65 54.53, 82.59 29.7 M47.16 66.21 C55.02 58.07, 61.06 50.47, 78.78 30.05 M55.42 64.51 C61.21 55.21, 71.34 51.26, 83.14 40.94 M53.57 63.85 C59.46 57.56, 66.52 52.06, 77.93 35.42 M59.86 69.2 C65.6 57.9, 72.34 46.87, 76.73 44.73 M60.98 66.81 C64.7 56.96, 75.18 47.95, 77.88 45.37 M65.77 65.55 C69.4 61.44, 76.73 54.97, 76.08 50.39 M63.57 65.91 C69.57 60.04, 74.1 52.98, 80.36 50.74 M69.52 64.37 C70.4 62.16, 76.26 62.31, 76.88 54.59 M68.79 66.69 C71.98 64.36, 74.83 61.05, 78.01 55.41 M75.52 65.61 C76.09 65.13, 78.04 62.51, 78.38 62.3 M75.46 65.68 C76.61 65.2, 76.98 64.2, 78.37 62.25" stroke="#7950f2" stroke-width="0.5" fill="none"></path><path d="M-3.05 2.14 C17.25 1.15, 43.68 -1.89, 78.3 -2.83 M0.66 -0.78 C14.85 -0.29, 32.59 0.88, 79.09 0.46 M77.22 0.54 C78.63 15.18, 79.33 24.85, 80.1 61.35 M77.54 1.09 C79.27 22.08, 77.76 44.66, 78.58 63.27 M77.7 62.07 C47.76 63.14, 17.41 67.26, -1 67.17 M78.01 66.48 C58.09 66.11, 35.46 64.52, 0.2 64.11 M-1.62 61.87 C-2.21 44.44, 2.12 17.28, 1.54 2.23 M-0.32 64.94 C-1.76 43.49, -2.35 20.05, 1.79 1.82" stroke="#000" stroke-width="1" fill="none"></path></g><g stroke-linecap="round"><g transform="translate(298.650813477886 851.2936289190611) rotate(0 -42.65081347788612 16.539704414272308)"><path d="M0 0 C0 -5.21, 0 -10.42, 0 -13.22 M0 0 C0 -2.85, 0 -5.69, 0 -13.22 M0 -13.22 C-18.41 -13.2, -36.83 -13.19, -46.13 -13.19 M0 -13.22 C-13.99 -13.21, -27.98 -13.2, -46.13 -13.19 M-46.13 -13.19 C-48.58 -18.16, -51.03 -23.14, -52.58 -26.28 M-46.13 -13.19 C-48.6 -18.21, -51.08 -23.23, -52.58 -26.28 M-52.58 -26.28 C-61.87 -26.32, -71.16 -26.36, -85.5 -26.42 M-52.58 -26.28 C-64.64 -26.33, -76.71 -26.38, -85.5 -26.42 M-85.5 -26.42 C-85.54 -9.08, -85.57 8.27, -85.67 59.44 M-85.5 -26.42 C-85.55 -1.89, -85.6 22.64, -85.67 59.44 M-85.67 59.44 C-65.22 59.46, -44.76 59.47, 0.27 59.5 M-85.67 59.44 C-64.32 59.46, -42.98 59.47, 0.27 59.5 M0.27 59.5 C0.31 45.91, 0.34 32.33, 0.37 19.54 M0.27 59.5 C0.31 44.11, 0.35 28.71, 0.37 19.54" stroke="#000" stroke-width="4" fill="none"></path></g></g><g transform="translate(226.00000000000102 916.3333333333334) rotate(0 30 12)"><text x="30" y="19" font-family="Roboto Mono, monospace" font-size="20px" fill="#000" text-anchor="middle" style="white-space: pre;" direction="ltr">files</text></g><g stroke-linecap="round" transform="translate(216.9999999999999 265.33333333333337) rotate(0 39 32.5)"><path d="M0 0 C0 0, 0 0, 0 0 M0 0 C0 0, 0 0, 0 0 M-1.37 6.52 C2.65 5.53, 3.96 2.13, 3.97 -0.52 M-0.35 6.69 C1.56 4.36, 2.59 3.61, 4.95 0.88 M1.11 10.65 C2.09 7.28, 7.38 6.51, 13.46 -1.21 M1.03 13.41 C2.01 8.95, 6.59 5.21, 11.95 0.66 M2.75 14.96 C5.59 17.68, 8.58 8.9, 13.48 -0.58 M1.82 17.52 C4.61 14.15, 9.74 6.12, 17.47 1.38 M3.18 20.8 C7.93 13.12, 11.68 6.77, 18.85 -0.42 M1.81 24.72 C7.57 15.04, 14.21 10.78, 19.34 -0.21 M1.02 30.99 C6.76 19.78, 13.11 18.76, 27.08 2.74 M-1.79 30.13 C7.15 24.45, 12.14 18.2, 26.15 0.09 M1.5 40.53 C11.5 25.12, 23.57 10.45, 32.51 -2.31 M-1.98 38.73 C8.66 25.47, 21.25 11.31, 33.86 -1.3 M-3.18 40.48 C14.38 32.05, 17.51 17.13, 35.8 -1.69 M1.28 42.96 C9.62 31.53, 17.13 20.95, 37.79 1.57 M2.15 46.2 C11.7 30.56, 28.69 10.76, 39.18 -0.48 M0.06 48.02 C12.59 34.13, 26.44 17.89, 42.94 1.07 M2.2 54.13 C22.33 33.31, 40.09 14.16, 47.19 1.33 M0.13 53.55 C15.64 35.89, 31.34 19.52, 47.72 1.09 M0.03 57.77 C12.65 46.52, 29.57 27.59, 53.92 -3.21 M0.62 62.65 C12.38 48.02, 23.67 37.2, 54.19 -2.06 M4.87 66.9 C26.49 41.77, 42.44 15.65, 59.78 4.01 M1.01 66.15 C16.95 47.77, 30.31 30.28, 59.81 1.43 M3.58 64.64 C24.33 45.63, 35.49 24.97, 66.76 -1.81 M7.46 64.58 C22.82 44.05, 43.8 23.78, 63.7 -0.18 M8.05 64.92 C29.51 46.23, 46.23 23.9, 71.14 -0.44 M11.23 66.73 C29.07 45.76, 50.2 21.43, 70.4 0.86 M13.06 65.52 C29.18 50.72, 44.63 34.98, 74.77 -2.57 M17.61 67.6 C37.39 43.21, 56.95 20.43, 76.09 0.74 M18.95 65.22 C33.04 53.27, 43.1 38.38, 77.15 -1.08 M23.53 66.63 C44.17 40.79, 63.92 15.74, 79.7 1.91 M24.4 63.91 C44.16 52.51, 52.77 36.89, 76.08 4 M25.34 64.76 C44.28 42.88, 66.46 21, 78.54 5.02 M29.62 66.5 C46.14 54.24, 51.91 40.15, 80.17 15.88 M33.03 65.38 C44.28 52.04, 59.27 36.27, 79.86 12.42 M37.15 67 C43.85 51.79, 52.61 46.02, 82.38 20.86 M38 67.35 C46.23 58.6, 53.61 47.43, 77.31 20.92 M47.1 68.46 C51.49 57.64, 59.27 50.16, 76.59 27.3 M43.31 65.99 C53.96 55.32, 61.47 43.79, 78.58 25.84 M49.87 67 C55.57 57.37, 61.34 48.19, 77.65 29.9 M47.43 66.12 C56.12 57.54, 64.41 46.68, 80.41 30.18 M53.45 63.8 C62.85 55.87, 72.91 42.31, 75.96 38.4 M54.48 67 C62.13 58.14, 69.78 47.83, 78.21 38.44 M60.1 65.11 C61.34 58.11, 72.23 53.53, 78.26 45.6 M57.99 67.36 C64.95 56.89, 70.93 48.65, 77.79 41.57 M61.7 62.23 C68.72 64.46, 68.92 62.2, 78.17 48.13 M63.15 66.42 C68.96 61.5, 71.24 55.39, 76.95 50.76 M71.62 64.28 C73.19 60.25, 78.02 61.07, 77.09 57.69 M70.33 65.19 C71.16 64.44, 73.45 60.35, 80.08 54.87 M75.58 65.82 C76.93 64.66, 78.93 63.22, 78.08 61.92 M75.21 65.65 C76.33 64.06, 77.85 62.28, 78.93 61.51" stroke="#228be6" stroke-width="0.5" fill="none"></path><path d="M-1.55 -1.22 C18.14 -1.81, 33.73 -2.48, 81.73 -2.69 M0.75 1.36 C29.26 1.22, 59.95 -1.52, 79.62 0.84 M80.19 -2.68 C74.86 21.55, 80.18 49.14, 75.19 62.52 M79.76 0.02 C78.47 21.68, 80.09 43.92, 77.38 66.21 M76.03 64 C55.99 70.12, 35.95 65.01, -2.85 62.57 M78.33 66.1 C50.4 65.04, 17.63 63.38, 1.27 63.13 M2.01 68.13 C-3.73 51.42, -3.61 36.27, -1.91 1.33 M-0.42 63.04 C-0.45 44.38, 1.11 23.67, -0.31 0.28" stroke="#000" stroke-width="1" fill="none"></path></g><g stroke-linecap="round"><g transform="translate(297.1508134778861 272.29362891906123) rotate(0 -42.65081347788612 16.53970441427232)"><path d="M0 0 C0 -3.93, 0 -7.86, 0 -13.22 M0 0 C0 -3.45, 0 -6.9, 0 -13.22 M0 -13.22 C-13.65 -13.21, -27.3 -13.2, -46.13 -13.19 M0 -13.22 C-17.93 -13.2, -35.87 -13.19, -46.13 -13.19 M-46.13 -13.19 C-48.25 -17.49, -50.37 -21.8, -52.58 -26.28 M-46.13 -13.19 C-48.07 -17.12, -50.01 -21.06, -52.58 -26.28 M-52.58 -26.28 C-64.36 -26.33, -76.15 -26.38, -85.5 -26.42 M-52.58 -26.28 C-63.04 -26.32, -73.5 -26.37, -85.5 -26.42 M-85.5 -26.42 C-85.56 0.94, -85.61 28.3, -85.67 59.44 M-85.5 -26.42 C-85.56 0.29, -85.61 27, -85.67 59.44 M-85.67 59.44 C-62.51 59.46, -39.35 59.48, 0.27 59.5 M-85.67 59.44 C-55.24 59.46, -24.81 59.49, 0.27 59.5 M0.27 59.5 C0.31 45.8, 0.34 32.1, 0.37 19.54 M0.27 59.5 C0.31 44.65, 0.35 29.8, 0.37 19.54" stroke="#000" stroke-width="4" fill="none"></path></g></g><g transform="translate(201.5 337.33333333333337) rotate(0 53 12)"><text x="0" y="19" font-family="Roboto Mono, monospace" font-size="20px" fill="#000" text-anchor="start" style="white-space: pre;" direction="ltr">_episodes</text></g><g stroke-linecap="round" transform="translate(216.9999999999999 415.33333333333337) rotate(0 39 32.5)"><path d="M0 0 C0 0, 0 0, 0 0 M0 0 C0 0, 0 0, 0 0 M0.35 6.05 C1.35 4.85, 2.86 2.84, 4.92 0.95 M0.42 6.32 C1.36 4.13, 2.29 2.18, 4.68 -0.41 M2.55 11.74 C3.82 5.66, 8.55 3.86, 10.29 -0.35 M-0.01 12.34 C2.32 9.31, 7.22 5.21, 9.51 1.26 M-0.23 18.91 C5.13 12.76, 9.97 9.65, 13.72 -1.88 M0.48 20.44 C4.23 13.94, 8.31 10.74, 16.32 -0.82 M-2.54 28.07 C9.76 17.64, 15.61 9.1, 24.14 2.84 M0.96 24.72 C8.19 17.51, 12.31 7.29, 20.7 0.89 M0.9 33.03 C8.05 19.81, 14.87 9.14, 22.58 -1.82 M-1.27 29.19 C8.62 21.19, 20.13 7.97, 26 0.87 M-0.37 33.46 C12.51 23.2, 17.53 13.34, 29.69 -0.37 M0.13 36.99 C8.56 29.74, 15.79 18.68, 30.5 -1.29 M-3.82 39.11 C9.69 35.95, 15.99 21.15, 34.44 -2.26 M-0.47 43.74 C12.84 27.65, 24.78 14.83, 34.88 0.51 M2.02 50.03 C14.89 34.6, 27.26 19.07, 45.38 2.14 M-1.63 50.76 C7.6 37.31, 16 28.04, 44.48 -0.18 M0.18 53.34 C15.83 43.84, 19.58 26.41, 51.36 1.5 M-1.26 54.85 C19.79 33.65, 34.86 17.21, 49.06 -1.35 M2.02 63.23 C16.39 35.85, 34.6 20.03, 56.78 -0.43 M-0.87 61.29 C14.16 41.3, 29.88 23.9, 53 0.48 M3.1 68.18 C24.91 43.63, 40.49 16.34, 58.36 -0.84 M1.35 64.05 C14.03 52.78, 28.9 36.35, 59.13 -0.71 M2.58 67.98 C18.32 52.21, 32.17 44.42, 64.41 -1.87 M4.91 67.82 C19.29 51.58, 32.6 33.9, 62.91 0.48 M10.66 67.27 C34.45 43.53, 59.42 10.28, 71.52 -2.58 M13.42 66.55 C28.65 46.4, 41.76 29.27, 68.21 1.97 M14.44 68.49 C29.83 53.17, 42.09 37.41, 75.84 -2.98 M15.5 65.38 C27.35 51.82, 41.17 35.85, 73.56 -0.91 M24.58 65.12 C40.16 42.47, 57.06 21.8, 81.2 4.75 M22.44 66.93 C37.38 44.91, 52.39 26.91, 79.24 2.45 M28.05 65.74 C41.27 52.61, 50.84 34.29, 75.7 3.24 M27.91 64.28 C46.11 45.3, 62.67 24.76, 78.9 5.87 M31.39 65.95 C51.78 44.26, 67.64 28.72, 76.28 16.4 M34.27 65.97 C46.86 45.97, 63.43 30.4, 79.13 13.84 M37.46 64.44 C53.44 50.69, 67.07 35.18, 78.2 17.23 M36.25 65.04 C51.13 50.42, 64.7 37.48, 79.93 18.34 M40.66 66.95 C57.3 51.93, 72.58 41.42, 79.64 22.77 M43.26 63.95 C54.5 49.87, 66.15 38.63, 78.32 26.82 M51.71 62.29 C54.83 57.5, 65.71 48.33, 77.78 34.4 M47.11 67.68 C55.35 56.43, 61.5 48.7, 79.41 31.48 M52.92 66.32 C59.37 58.95, 62.76 57.47, 79.33 34.55 M52.26 64.64 C62.19 53.4, 70.59 43.75, 77.92 38.94 M62.86 65.99 C62.4 58.4, 74.63 55.55, 77.34 42.72 M59.6 67.73 C64.25 60.01, 70.26 50.33, 78.03 43.32 M67.71 63.28 C66.45 64.61, 69.92 59.57, 77.75 48.21 M64.63 67.3 C70.64 58.67, 74.26 51.02, 78.88 47.95 M69.91 66.88 C73.43 65.35, 73.49 63.29, 79.3 54.7 M69.47 64.74 C72.37 62.41, 73.55 60.92, 78.06 54.87 M75.5 65.71 C77.07 63.39, 78.16 62.94, 78.62 61.11 M75.66 65.89 C75.98 64.67, 77.85 63.76, 79.21 61.6" stroke="#228be6" stroke-width="0.5" fill="none"></path><path d="M2.14 -2.14 C20.43 0.25, 38.54 1.85, 80.79 3.77 M1.55 1.17 C20.85 -0.06, 41.29 -0.94, 77.07 -0.57 M79.46 -1.07 C77.48 19.29, 77.81 42.3, 79.94 67.43 M76.56 -0.61 C79.06 22.57, 76.93 43.02, 79.2 65.72 M77.04 66.76 C49.58 66.44, 13.68 68.27, 0.57 66.74 M76.6 63.91 C56.08 64.42, 34.88 66, -0.98 65.87 M-2.77 65.36 C-2.89 46.44, 1.14 30.74, -2.55 -1.74 M-0.87 65.36 C0.69 45.97, -0.17 25.03, -1.73 0.7" stroke="#000" stroke-width="1" fill="none"></path></g><g stroke-linecap="round"><g transform="translate(297.1508134778861 422.29362891906123) rotate(0 -42.65081347788612 16.539704414272308)"><path d="M0 0 C0 -3.98, 0 -7.97, 0 -13.22 M0 0 C0 -3.34, 0 -6.68, 0 -13.22 M0 -13.22 C-14.43 -13.21, -28.87 -13.2, -46.13 -13.19 M0 -13.22 C-14.63 -13.21, -29.26 -13.2, -46.13 -13.19 M-46.13 -13.19 C-48.45 -17.89, -50.76 -22.6, -52.58 -26.28 M-46.13 -13.19 C-47.96 -16.9, -49.79 -20.61, -52.58 -26.28 M-52.58 -26.28 C-60.13 -26.31, -67.67 -26.34, -85.5 -26.42 M-52.58 -26.28 C-63.13 -26.32, -73.68 -26.37, -85.5 -26.42 M-85.5 -26.42 C-85.56 2.29, -85.62 31.01, -85.67 59.44 M-85.5 -26.42 C-85.55 -0.83, -85.61 24.77, -85.67 59.44 M-85.67 59.44 C-63.32 59.46, -40.96 59.47, 0.27 59.5 M-85.67 59.44 C-65.22 59.46, -44.77 59.47, 0.27 59.5 M0.27 59.5 C0.3 46.91, 0.34 34.31, 0.37 19.54 M0.27 59.5 C0.31 44.97, 0.35 30.44, 0.37 19.54" stroke="#000" stroke-width="4" fill="none"></path></g></g><g transform="translate(178 487.33333333333337) rotate(0 76.5 12)"><text x="0" y="19" font-family="Roboto Mono, monospace" font-size="20px" fill="#000" text-anchor="start" style="white-space: pre;" direction="ltr">_episodes_rmd</text></g><g stroke-linecap="round" transform="translate(218.00000000000023 115.33333333333348) rotate(0 39 32.5)"><path d="M0 0 C0 0, 0 0, 0 0 M0 0 C0 0, 0 0, 0 0 M0.42 5.5 C0.21 5.56, 1.06 2.41, 5.1 0.07 M-0.06 6.2 C1.27 4.55, 2.38 3.97, 4.75 -0.03 M-1.1 11.22 C5.66 7.32, 11.23 1, 7.71 2.94 M0.48 12.02 C1.76 9.5, 3.46 6.27, 9.05 1.19 M-2.6 22.11 C0.54 14.17, 9.34 7.31, 18.92 3.79 M-0.39 18.16 C2.11 14.43, 6.62 8.99, 16.81 -0.03 M-0.63 27.91 C7.72 14.46, 16.35 10.37, 19.15 -1.13 M0.68 24.46 C8.35 15.58, 14.26 8.59, 21.42 1.24 M-2.58 28.83 C9.99 20.71, 17.55 7.79, 27.17 3.78 M0.97 29.12 C10.77 20.58, 21.17 6.47, 27.88 -1.23 M-1.48 35.97 C8.53 22.76, 22.77 16.26, 31.14 1.31 M-0.92 36.09 C6.59 27.4, 14.81 17.5, 30.68 0.05 M-0.31 39.37 C12.42 30.7, 26.73 14.15, 40.7 2.18 M0.1 42.36 C8.58 32.2, 16.78 22.69, 35.14 1.63 M-3.95 48.25 C10.77 32.84, 29.38 14.7, 46.15 -2.96 M0.61 49.24 C10.8 35.46, 24.66 21.03, 41.7 0.04 M3.41 51.76 C18.22 37.95, 29.31 13.49, 47.23 0.52 M0.27 54 C16.62 35.81, 30.53 17.67, 47.62 -1.1 M-0.99 63.03 C17.51 40.36, 25.25 24.47, 52.38 3.12 M-0.38 61.02 C19.32 38.63, 37.7 18.5, 51.26 -0.2 M1.45 62.31 C26.68 41.3, 42.83 18.28, 59.46 -0.65 M0.92 63.88 C16.27 48.4, 29.61 33.21, 57.82 1.43 M6.02 70.07 C20.56 52.02, 42.41 27.06, 63.03 3.6 M4.56 65.48 C19.06 54.14, 29.39 40.76, 63.62 -1.56 M12.19 64.49 C21.12 53.6, 36.06 34.36, 67.09 -1.77 M13.5 66.53 C34.89 42.23, 53.24 15.24, 69.79 0.57 M17.45 66.44 C34.54 46.88, 56.25 24.83, 76.31 -2.49 M16.14 65.5 C32.77 47.77, 47.98 28.75, 74.57 -0.44 M20 64.68 C39.63 51.72, 47.96 34.16, 76.16 4.45 M21.95 66.88 C37.03 44.93, 57.64 26.62, 78.39 0.94 M23.43 67.95 C48.86 43.07, 61.42 23.33, 77.52 5.71 M27.27 64.21 C46.81 43.61, 64.02 24.04, 77.47 6.05 M36.07 64.91 C49.95 45.71, 64.49 34.66, 77.2 10.12 M31.53 67.03 C45.49 52.53, 59.44 35.98, 77.44 13.45 M35.65 68.16 C46.57 55.73, 55.33 39.81, 75.51 16.47 M38.99 67.95 C48.62 51.2, 60.22 38.11, 79.76 17.75 M40.61 66.24 C58.2 53.33, 73.35 32.61, 80.76 24.47 M43.02 65.57 C55.2 52.34, 69.31 38.22, 79.33 23.62 M50.82 67.62 C59.48 56.92, 69.45 44.57, 77.39 35.06 M47.82 67.57 C57.47 52.69, 69.29 37.53, 77.6 32.99 M54.83 68.71 C59.21 55.16, 68.2 50.13, 80.52 35.06 M52.7 65.62 C63.48 53.53, 73.92 42.03, 78.07 36.81 M58.64 65.87 C63.89 59.27, 69.13 55.03, 76.71 41.27 M57.79 66.44 C65.48 60.6, 68.25 51.45, 80.12 42.11 M60.93 63.37 C68.67 62.13, 73.97 55.82, 78.55 53.17 M64.33 66.77 C67.1 60.17, 72.61 57.04, 78.53 51.64 M72.62 68.42 C69.83 61.33, 72.81 59.56, 77.38 53.84 M68.84 64.88 C71.96 61.93, 75.78 60.88, 80.11 55.28 M75.13 65.27 C76.18 65.01, 77.5 62.56, 79.02 62.09 M75.9 65.49 C75.69 64.55, 77.08 63.47, 78.82 61.61" stroke="#228be6" stroke-width="0.5" fill="none"></path><path d="M2.64 -1.55 C30.35 -0.19, 56.42 4.53, 75.57 2.09 M-0.55 -1.69 C20.67 0.14, 43.35 -1.61, 76.3 -0.89 M80.36 -0.95 C81.22 20.11, 77.36 36.28, 74.18 68.31 M76.44 -0.8 C76.51 16.46, 76.03 36.75, 77.26 64.49 M74.43 66.33 C54.33 65.12, 27.8 65.92, 0.89 62.84 M78.73 66.54 C53.41 65.34, 24.42 61.68, -0.39 66.28 M-3.29 61.57 C-3.36 46.28, -1.14 31.59, -1.86 3.42 M-1 63.85 C0.23 47.31, -2.87 27.09, -1.73 -0.75" stroke="#000" stroke-width="1" fill="none"></path></g><g stroke-linecap="round"><g transform="translate(298.15081347788623 122.29362891906123) rotate(0 -42.65081347788612 16.53970441427232)"><path d="M0 0 C0 -3.19, 0 -6.37, 0 -13.22 M0 0 C0 -5.06, 0 -10.13, 0 -13.22 M0 -13.22 C-15.28 -13.21, -30.57 -13.2, -46.13 -13.19 M0 -13.22 C-9.69 -13.21, -19.39 -13.2, -46.13 -13.19 M-46.13 -13.19 C-48.13 -17.25, -50.13 -21.31, -52.58 -26.28 M-46.13 -13.19 C-48.42 -17.84, -50.72 -22.5, -52.58 -26.28 M-52.58 -26.28 C-63.12 -26.32, -73.66 -26.37, -85.5 -26.42 M-52.58 -26.28 C-65.21 -26.33, -77.83 -26.39, -85.5 -26.42 M-85.5 -26.42 C-85.56 4.01, -85.62 34.45, -85.67 59.44 M-85.5 -26.42 C-85.55 -2.37, -85.6 21.68, -85.67 59.44 M-85.67 59.44 C-59.19 59.46, -32.7 59.48, 0.27 59.5 M-85.67 59.44 C-67.99 59.46, -50.3 59.47, 0.27 59.5 M0.27 59.5 C0.3 50.38, 0.32 41.26, 0.37 19.54 M0.27 59.5 C0.3 49.74, 0.32 39.97, 0.37 19.54" stroke="#000" stroke-width="4" fill="none"></path></g></g><g transform="translate(214.00000000000045 187.33333333333337) rotate(0 41.5 12)"><text x="41.5" y="19" font-family="Roboto Mono, monospace" font-size="20px" fill="#000" text-anchor="middle" style="white-space: pre;" direction="ltr">_extras</text></g><g stroke-linecap="round"><g transform="translate(305.0000000000002 136.12185856940837) rotate(0 123.58333333333343 12.60330196959795)"><path d="M0 0 C41.19 4.2, 205.97 21.01, 247.17 25.21" stroke="#000" stroke-width="4.5" fill="none" stroke-dasharray="8 12"></path></g><g transform="translate(305.0000000000002 136.12185856940837) rotate(0 123.58333333333343 12.60330196959795)"><path d="M218.08 32.55 C228.09 30.03, 238.09 27.5, 247.17 25.21" stroke="#000" stroke-width="4.5" fill="none"></path></g><g transform="translate(305.0000000000002 136.12185856940837) rotate(0 123.58333333333343 12.60330196959795)"><path d="M220.16 12.14 C229.45 16.63, 238.74 21.13, 247.17 25.21" stroke="#000" stroke-width="4.5" fill="none"></path></g></g><g stroke-linecap="round"><g transform="translate(304.1609475196776 149.59356451860256) rotate(0 125.50285957349479 72.13705272295154)"><path d="M0 0 C41.83 24.05, 209.17 120.23, 251.01 144.27" stroke="#000" stroke-width="4.5" fill="none" stroke-dasharray="8 12"></path></g><g transform="translate(304.1609475196776 149.59356451860256) rotate(0 125.50285957349479 72.13705272295154)"><path d="M221.45 139.12 C231.08 140.8, 240.71 142.48, 251.01 144.27" stroke="#000" stroke-width="4.5" fill="none"></path></g><g transform="translate(304.1609475196776 149.59356451860256) rotate(0 125.50285957349479 72.13705272295154)"><path d="M231.68 121.33 C237.97 128.8, 244.27 136.28, 251.01 144.27" stroke="#000" stroke-width="4.5" fill="none"></path></g></g><g stroke-linecap="round" transform="translate(673.312765222071 613.1996237452272) rotate(0 29.439736186834807 24.533113489029006)"><path d="M0 0 C0 0, 0 0, 0 0 M0 0 C0 0, 0 0, 0 0 M0.16 5.16 C1.73 4.31, 1.39 5.32, 5.79 1.76 M0.12 5.79 C0.88 4.86, 1.81 2.47, 4.9 -0.09 M-1.87 13.1 C6.08 7.19, 6.27 0.13, 8.08 -1.01 M-0.94 13.6 C2.84 8.36, 5.39 7.76, 11.69 -0.76 M-3.75 17.49 C7.28 16.99, 11.55 8.89, 18.94 -2.14 M0.11 18.87 C4.94 10.66, 11.69 8.1, 15.72 1.35 M3.35 27.97 C7.44 18.01, 10.74 16.73, 22.74 -0.09 M1.87 24.27 C7.35 13.07, 18.4 6.27, 19.5 0.12 M-0.95 29.03 C11.42 21.37, 17.52 11.16, 23.53 -2.45 M0.17 31.97 C7.88 22.15, 15.74 12.15, 24.62 -0.56 M-0.5 33.57 C5.6 24.31, 15.45 20.6, 32.67 1.39 M1.52 36.52 C10.16 24.99, 24.07 9.46, 30.45 0.39 M0.91 43.45 C11.99 24.68, 28.05 18.38, 32.96 3.96 M-0.09 44.51 C15.16 27.93, 29.29 10.97, 36.25 0.12 M3.58 49.7 C10.63 33.5, 27.26 12.18, 41.91 3.74 M1.83 49.82 C15.45 34.15, 25.82 16.71, 41.33 -1.25 M5.15 54.28 C11.39 40.13, 26.62 31.35, 44.44 1.14 M4.49 50.32 C16.54 34.37, 28.16 22.25, 46.87 -1.52 M8.03 48.1 C21.11 33.51, 43.88 13.8, 56.18 -1.5 M8.3 52.96 C26.13 30.55, 43.41 12.33, 52.14 -1.47 M10.73 51.03 C28.87 31.59, 40.49 19.72, 56.18 4.13 M13.16 52.72 C26.24 37.65, 39.07 24.89, 56.26 2.14 M17.79 53.87 C34.57 35.53, 45.7 22.21, 64.21 2.49 M17.44 53.6 C26.78 38.99, 36.78 28.14, 60.46 1.85 M20.47 53.31 C36.86 38.88, 39.94 28.43, 60.15 11.28 M23.58 50.62 C35.83 38.43, 46.52 26.35, 60.48 7.49 M25.44 48.05 C38.29 45.76, 43.19 35.58, 58.49 13.56 M27.9 52.85 C37.14 45.09, 43.6 37.03, 62.09 13.37 M38.08 54.66 C38.39 44.71, 52.35 37.65, 60.5 23.11 M36.78 50.37 C39.99 45.33, 47.87 37.27, 62.24 18.6 M43.19 55.7 C47.62 48.08, 51.21 37.35, 57.56 24.93 M40.46 53.31 C44.49 45.25, 49.12 38.23, 61.39 26.61 M44.27 47.63 C50.12 45.81, 52.04 38.95, 61.72 31.9 M45.27 50.82 C49.62 43.62, 57.62 38.05, 63.09 32.82 M51.97 52.71 C51.36 44.52, 57.38 38.91, 62.33 40.6 M51.25 50.34 C51.07 50.33, 55.88 46.45, 60.01 39.58 M54.72 49.93 C57.57 48.82, 58.91 49.37, 59.71 43.78 M56.46 51.35 C56.82 49.04, 58.87 48.29, 60.84 44.99" stroke="#7950f2" stroke-width="0.5" fill="none"></path><path d="M-3.83 -2.44 C16.05 -0.99, 35.61 1.24, 57.36 0.67 M1.99 -0.09 C22.04 -1.53, 45.6 1.53, 57.11 -1.84 M57.56 -2.59 C59.12 13.68, 58.24 24.79, 56.38 48.29 M60.67 0.91 C58.32 17.8, 59.62 31.9, 58.27 47.72 M62.62 46.77 C39.66 46.41, 10.96 52.88, -2.49 47.25 M57.76 50.22 C45.46 49.11, 32.85 50.69, 1.09 50.75 M-1.6 50.6 C-1.65 34.18, -2.68 28.71, -1.86 -2.93 M-1.18 48.81 C-2.11 36.09, -2.36 27.56, 0.13 -1.37" stroke="#000" stroke-width="1" fill="none"></path></g><g stroke-linecap="round"><g transform="translate(754.817480144553 624.9307904080797) rotate(0 -53.19727628129522 6.00816155229154)"><path d="M-21 -6.48 C-21 -9.79, -21 -13.11, -21 -16.45 M-21 -6.48 C-21 -9.73, -21 -12.98, -21 -16.45 M-21 -16.45 C-31.91 -16.45, -42.81 -16.44, -55.82 -16.43 M-21 -16.45 C-34.45 -16.44, -47.91 -16.44, -55.82 -16.43 M-55.82 -16.43 C-57.76 -20.37, -59.71 -24.31, -60.69 -26.31 M-55.82 -16.43 C-57.66 -20.17, -59.5 -23.91, -60.69 -26.31 M-60.69 -26.31 C-67.17 -26.34, -73.66 -26.37, -85.55 -26.42 M-60.69 -26.31 C-69.65 -26.35, -78.6 -26.39, -85.55 -26.42 M-85.55 -26.42 C-85.59 -2.27, -85.64 21.88, -85.67 38.4 M-85.55 -26.42 C-85.58 -9.25, -85.61 7.91, -85.67 38.4 M-85.67 38.4 C-68.87 38.41, -52.07 38.42, -20.8 38.44 M-85.67 38.4 C-69.62 38.41, -53.57 38.42, -20.8 38.44 M-20.8 38.44 C-20.77 27.99, -20.74 17.55, -20.72 8.27 M-20.8 38.44 C-20.78 31.29, -20.76 24.13, -20.72 8.27" stroke="#000" stroke-width="4" fill="none"></path></g></g><g transform="translate(683.5034431328995 667.5499059363066) rotate(0 18.116760730359942 9.058380365179971)"><text x="18.11676073035989" y="14.11676073035989" font-family="Roboto Mono, monospace" font-size="15.097300608633251px" fill="#000" text-anchor="middle" style="white-space: pre;" direction="ltr">data</text></g><g stroke-linecap="round" transform="translate(565.312765222071 613.1996237452286) rotate(0 29.439736186834864 24.533113489029006)"><path d="M0 0 C0 0, 0 0, 0 0 M0 0 C0 0, 0 0, 0 0 M-1.08 5.68 C3.08 5.18, 4.66 1.87, 4.15 0.56 M-0.18 5.6 C0.96 4.25, 3.04 2.95, 5.36 0.89 M0.12 10.12 C0.17 6.5, 4.06 3.84, 8.62 0.28 M-0.79 12.39 C3.56 10.26, 4.07 5.47, 9.23 -0.08 M2.81 22.16 C2.47 17.71, 4.09 11.32, 15.07 1.97 M-2.02 20.19 C6.02 12.89, 10.63 5.83, 14.36 -0.56 M-0.33 24.41 C11.5 16.26, 15.6 9.43, 22.11 -1.49 M-1.38 25.77 C9.28 13.37, 16.37 6.81, 20.3 -1.27 M0.95 29.69 C8.56 19.15, 11.97 13.9, 25.88 -0.17 M0.95 29.94 C7.92 19.62, 14.88 10.33, 28.02 1.72 M-4.25 39.12 C10.22 26.88, 20.74 18, 32.61 -3.12 M1.02 37.62 C11.77 21.48, 25.38 9.29, 32.52 -1.23 M-3.83 45.89 C15.66 25.17, 27.1 18.87, 34.85 1.65 M1.94 43.19 C10.88 29.47, 20.38 18.81, 38.22 -0.22 M1.22 47.48 C13.4 29.76, 37.05 11.36, 38.69 3.18 M0.85 47.78 C14.98 27.54, 32.25 7.51, 41.17 -0.94 M2.14 55.43 C19.55 30.59, 34.9 15.53, 48.54 -0.38 M1.19 49.95 C22.23 31.27, 35.65 14.21, 48.83 0.42 M9.83 53.37 C25.12 39.96, 35.04 24.57, 54.37 2.13 M7.18 52.74 C23.06 33.71, 35.06 18.76, 54.33 -1.89 M10.15 48.99 C25.96 37.55, 38.11 26.43, 56.48 2.95 M14.05 52.7 C27 35.03, 39.98 22.47, 56.19 1.89 M17.89 52.04 C31.27 39.78, 42.87 19.91, 58.74 5.67 M17.1 50.8 C26.72 39.03, 38.76 27.01, 62.64 0.21 M21.39 49.33 C28.84 40.4, 42.13 32.55, 64.01 6.15 M23.25 52.51 C34.25 38.26, 43.85 25.79, 61.94 10.28 M31.32 52.72 C36.16 40.94, 41.89 32.86, 64.64 16.82 M30.85 52.76 C38.2 43.35, 42.57 32.75, 59.98 15.2 M35.89 55.14 C46.35 38.9, 57.48 24.97, 62.62 23.9 M35.89 52.93 C45.66 39.77, 54.73 25.03, 63.38 22.33 M41.66 54.6 C44 37.93, 54.01 30.53, 60.94 27.96 M39.77 49.89 C46.06 43.64, 53.59 34.2, 61.81 28.76 M44.71 50.14 C47.23 46.12, 54.04 41.67, 58.13 32.61 M43.57 52.96 C48.84 47.36, 55.41 42.23, 61.62 31.04 M47.91 50.17 C51 48.32, 59.72 40.04, 64.52 36.9 M51.53 52.78 C54.45 45.92, 59.06 42.74, 61.55 38.3 M55.18 51.23 C58.71 48.47, 56.88 48.3, 60.55 45.7 M55.38 51.28 C58.13 48.88, 59.4 47.85, 61.72 45.38" stroke="#7950f2" stroke-width="0.5" fill="none"></path><path d="M-1.66 -0.49 C12.59 -0.93, 24.72 4.33, 59.92 1.2 M-1.18 -0.74 C25.4 -1.11, 45.2 -0.54, 59.14 0.96 M60.81 -0.77 C59.52 10.6, 57.47 27.65, 62.33 45.74 M60.18 -0.11 C58.24 18.51, 57.98 40.02, 60.86 48.79 M56.38 46.96 C39.68 47.66, 10.73 46.91, 3.13 51.98 M58.06 48.81 C45.29 49.84, 31.84 47.59, -0.78 48.37 M-3.03 46 C2.98 34.45, -3.31 21.03, 2.41 -2.08 M-1.35 47.3 C1.86 37.36, -1.25 24.56, 1.45 0.29" stroke="#000" stroke-width="1" fill="none"></path></g><g stroke-linecap="round"><g transform="translate(646.817480144553 624.9307904080797) rotate(0 -53.19727628129516 6.00816155229154)"><path d="M-21 -6.48 C-21 -8.86, -21 -11.25, -21 -16.45 M-21 -6.48 C-21 -9.43, -21 -12.38, -21 -16.45 M-21 -16.45 C-29.19 -16.45, -37.39 -16.44, -55.82 -16.43 M-21 -16.45 C-33.03 -16.45, -45.06 -16.44, -55.82 -16.43 M-55.82 -16.43 C-57 -18.83, -58.18 -21.22, -60.69 -26.31 M-55.82 -16.43 C-57.56 -19.97, -59.31 -23.5, -60.69 -26.31 M-60.69 -26.31 C-69.1 -26.35, -77.51 -26.39, -85.55 -26.42 M-60.69 -26.31 C-67.83 -26.34, -74.97 -26.38, -85.55 -26.42 M-85.55 -26.42 C-85.58 -8.69, -85.62 9.04, -85.67 38.4 M-85.55 -26.42 C-85.59 -4.39, -85.63 17.65, -85.67 38.4 M-85.67 38.4 C-71.24 38.4, -56.81 38.41, -20.8 38.44 M-85.67 38.4 C-71.17 38.4, -56.67 38.41, -20.8 38.44 M-20.8 38.44 C-20.77 28.39, -20.75 18.35, -20.72 8.27 M-20.8 38.44 C-20.77 26.46, -20.74 14.48, -20.72 8.27" stroke="#000" stroke-width="4" fill="none"></path></g></g><g transform="translate(580.0326333154867 667.5499059363066) rotate(0 13.587570547769928 9.058380365179971)"><text x="13.58757054776992" y="14.11676073035989" font-family="Roboto Mono, monospace" font-size="15.09730060863325px" fill="#000" text-anchor="middle" style="white-space: pre;" direction="ltr">fig</text></g><g stroke-linecap="round" transform="translate(784.3127652220705 613.1996237452279) rotate(0 29.439736186834807 24.533113489029006)"><path d="M0 0 C0 0, 0 0, 0 0 M0 0 C0 0, 0 0, 0 0 M0.54 7.79 C0.57 3.95, 2.61 4.06, 3.76 -0.29 M-0.35 5.95 C2.2 4.98, 3.65 2.24, 5.25 0.85 M-2.42 11.07 C1.08 6.57, 6.89 2.82, 13.74 0.31 M1.19 11.32 C1.7 7.56, 5.13 4.58, 10.25 1.27 M3.2 15.98 C6.14 11.19, 12.94 5.45, 16.48 0.35 M-0.03 19.46 C1.48 13.25, 5.15 12.32, 17.56 1.3 M1.75 24.06 C9.98 17.64, 10.78 13.12, 21.64 -2.25 M-1.49 24.27 C5.29 17.63, 7.8 12.86, 20.54 0.99 M-2.71 27.74 C8.98 20.2, 16.65 11.13, 29.22 -0.28 M-1.62 29.63 C7.67 21.7, 19.81 9.33, 24.6 0.02 M0.52 38.37 C8.53 30.13, 9.19 25.56, 31.17 -2.73 M-1.69 37.37 C11.93 24.25, 21.75 10.53, 32.35 -0.25 M-3.78 46.22 C10.07 31.28, 15.56 24.38, 40.85 1.39 M-0.49 42.38 C15.1 27.02, 28.05 11.04, 37.27 -1.41 M-0.73 52.79 C14.71 29.37, 32 20.75, 44.31 2.98 M-1.32 47.8 C13.6 31.06, 29.38 16.43, 43.89 -1.02 M-0.17 52.46 C14.59 37.82, 26.37 25.55, 45.06 0.91 M2.26 49.8 C15.08 41.04, 23.08 28.76, 45.61 -1.62 M10.91 50.58 C26.75 34.4, 41.37 15.85, 55.27 1.95 M6.88 50.6 C20.18 38.74, 29.7 22.38, 52.91 0.28 M11.57 55.45 C22.52 38.32, 36.18 28.18, 60.57 0.84 M11.65 53.46 C27.49 32.13, 43.74 16.96, 59.14 1.22 M20.91 52.3 C27.36 34.41, 46.71 21.15, 65.28 -1.51 M17.16 51.66 C27.87 41.95, 37.07 27.86, 62.73 4.01 M22.76 54.3 C32.94 44.51, 39.58 30.97, 59.85 11.01 M23.09 50.51 C31.38 41.06, 44.59 27.85, 59.66 9.77 M26.34 50.54 C37.17 42.13, 53.73 23.19, 63.32 17.93 M29.94 50.35 C40.19 35.7, 53.92 24.41, 62.9 13.09 M33.61 54.06 C39.76 42, 55.24 34.91, 59.55 19.46 M35.34 49.55 C42.06 42.2, 55.26 31.23, 63.64 22.36 M35.91 49.83 C45.28 43.06, 55.52 36.28, 64.45 25.01 M39.74 51.52 C45.6 44.83, 55.11 36.4, 59.54 27.29 M45.31 50.77 C50.73 42.63, 54.87 40.71, 60.65 29.94 M46.69 51.68 C50.19 47.53, 50.43 44.74, 62.37 30.57 M51.18 53.43 C49.99 52.03, 53.55 47.85, 58.7 36.04 M48.85 52.41 C54.09 47.07, 57.79 40.97, 60.03 38.96 M54.46 49.82 C56.91 49.04, 59.01 49.14, 61.25 43.9 M55.59 51.03 C57.84 50.46, 58.38 48.27, 61.87 46" stroke="#7950f2" stroke-width="0.5" fill="none"></path><path d="M-1.52 0.67 C18.96 0.87, 31.64 3.81, 58.7 -2.26 M-1.77 -1.84 C12.99 -0.84, 29.37 -1.77, 57.59 0.06 M56.38 -0.77 C60.14 20.54, 55.36 37.75, 60.7 46.26 M58.27 -1.35 C60.61 19.9, 58.55 37.71, 57.73 50.91 M56.39 47.25 C41.65 53.36, 33.82 47.99, 2.31 48.01 M59.97 50.75 C42.45 48.74, 27.66 48.72, 0.77 48.05 M-1.86 46.13 C-1.78 40.47, -1.33 24.7, -0.51 -3.04 M0.13 47.69 C0.02 39.12, 1.16 26.16, -0.53 0.14" stroke="#000" stroke-width="1" fill="none"></path></g><g stroke-linecap="round"><g transform="translate(865.817480144553 624.930790408079) rotate(0 -53.19727628129522 6.00816155229154)"><path d="M-21 -6.48 C-21 -9.35, -21 -12.22, -21 -16.45 M-21 -6.48 C-21 -9.1, -21 -11.73, -21 -16.45 M-21 -16.45 C-30.78 -16.45, -40.55 -16.44, -55.82 -16.43 M-21 -16.45 C-31.25 -16.45, -41.51 -16.44, -55.82 -16.43 M-55.82 -16.43 C-57.03 -18.87, -58.23 -21.32, -60.69 -26.31 M-55.82 -16.43 C-57.22 -19.27, -58.62 -22.11, -60.69 -26.31 M-60.69 -26.31 C-66.24 -26.34, -71.8 -26.36, -85.55 -26.42 M-60.69 -26.31 C-65.96 -26.34, -71.22 -26.36, -85.55 -26.42 M-85.55 -26.42 C-85.58 -7.21, -85.62 11.99, -85.67 38.4 M-85.55 -26.42 C-85.58 -9.52, -85.61 7.38, -85.67 38.4 M-85.67 38.4 C-69.13 38.41, -52.58 38.42, -20.8 38.44 M-85.67 38.4 C-72.65 38.4, -59.62 38.41, -20.8 38.44 M-20.8 38.44 C-20.78 31.2, -20.76 23.96, -20.72 8.27 M-20.8 38.44 C-20.77 28.73, -20.75 19.02, -20.72 8.27" stroke="#000" stroke-width="4" fill="none"></path></g></g><g transform="translate(789.9742529503164 667.5499059363066) rotate(0 22.645950912949843 9.058380365179971)"><text x="22.645950912949864" y="14.11676073035989" font-family="Roboto Mono, monospace" font-size="15.09730060863324px" fill="#000" text-anchor="middle" style="white-space: pre;" direction="ltr">files</text></g><g stroke-linecap="round" transform="translate(565.1782095158583 402.6666666666671) rotate(0 39 32.5)"><path d="M0 0 C0 0, 0 0, 0 0 M0 0 C0 0, 0 0, 0 0 M0.48 7.72 C1.48 4.07, 2.82 2.82, 6.14 -1.03 M-0.54 5.97 C1.34 4.56, 3 2.11, 5.77 -0.01 M0.5 15.01 C4.26 10.06, 6.42 9.15, 12.96 -2.66 M-0.24 11.08 C3.53 8.56, 7.17 3.29, 11.86 0.48 M3.47 14.59 C5.13 8.85, 13.59 10.1, 16.63 0.84 M0.69 18.85 C6.79 10.36, 9.63 6.38, 13.82 -0.02 M1.69 23.89 C7.24 15.85, 15.84 5.09, 23.01 3.59 M-1.5 24.39 C6.47 15.86, 13.81 6.91, 19.54 1.78 M-2.95 34.41 C2.75 22.95, 7.84 21.53, 22.93 -1.75 M-1.12 29.94 C9.24 17.37, 19.89 8.71, 27.38 0.73 M-3.76 38.69 C13.63 26.62, 24.66 13.93, 34.16 -2.82 M-1.41 35.21 C6.93 28.8, 15.22 20.75, 32.07 -1 M-1.12 43.36 C13.34 32.94, 21.06 14.11, 38.81 -0.17 M0.44 42.36 C15.35 26.03, 30.19 7.38, 36.73 -0.76 M1.58 49.34 C14.97 33.27, 22.49 20.96, 42.54 -3.33 M0.32 49.3 C7.06 36.33, 16.15 25.94, 43.13 1.55 M0.5 56.64 C12.66 39.62, 28.71 22.01, 51.32 1.28 M0.75 55.38 C18.88 34.88, 34.94 16.34, 47.46 0.52 M0.11 64.3 C21.3 39.58, 39.56 16.91, 50.69 -1.74 M-1.34 62.45 C18.3 40.98, 37.9 18.41, 54.56 -1.8 M1.11 65.69 C14.03 51.68, 28.23 38.75, 54.5 -0.7 M0.31 67.03 C19.19 44.72, 38.08 23.82, 57.68 1.1 M3.78 69.48 C20.05 48.05, 30.91 30.92, 60.16 -0.86 M7.61 66.39 C17.04 53.77, 31.25 38.16, 64.71 1.22 M15.44 69.17 C31.15 42.27, 48.53 27.73, 65.4 -0.4 M12.64 65.02 C25.24 50.77, 41.9 32.22, 69.98 1.01 M16.33 68.08 C37.64 43.8, 58.38 25.54, 71.5 -2.47 M18.46 64.64 C37.49 41.47, 62.93 14.65, 72.44 -1.62 M22.21 64.58 C31.73 47.89, 42.95 34.99, 75.41 1.63 M20.78 66.43 C43.92 43.17, 62.74 20.35, 78.82 0.51 M29.2 68.1 C36.49 50.04, 51.72 44.14, 78.35 7.41 M27.72 68.02 C41.93 50.06, 54.65 36.05, 79.19 7.76 M32.96 63.14 C49.78 46.16, 64.02 32.61, 82.4 15.66 M34.06 64.54 C48.6 48.12, 60.92 30.1, 78.6 13.2 M37.45 65.24 C52.26 49.63, 59.68 37.08, 79.92 20.24 M36.98 65.55 C49.01 52.47, 59.7 40.13, 77.48 19.37 M42.23 69.04 C49.56 58.57, 58.19 46.34, 78.24 23.08 M42.33 64.12 C54.11 54.94, 62.43 42.07, 79.28 26.28 M51.13 64.21 C58.72 56.28, 62.75 45.72, 79.65 30.43 M48.35 65.76 C56.56 59.23, 63.68 51.64, 77.54 32.68 M51.57 63.49 C57.38 55.39, 69.94 50.52, 76 33.59 M55.95 65.45 C61.18 55.64, 71.13 48.79, 77.45 37.77 M55.28 62.69 C67.76 59.19, 73.02 49.62, 81.44 40.93 M60.44 64.66 C67.43 56.87, 70.83 50.4, 79.59 42.24 M61.54 68.69 C66.43 65.12, 70.37 56.43, 79.05 50.64 M65.78 64.3 C69.26 61.91, 74.38 54.76, 77.56 49.96 M67.11 66.99 C70.2 65.69, 72.86 59.09, 80.29 55.09 M68.79 65.84 C72.48 62.07, 72.97 61.35, 80.38 56.75 M74.52 66.17 C76.92 64.1, 77.41 63.2, 78 61.48 M75.39 65.19 C76.47 64.14, 77.41 63.03, 78.69 61.96" stroke="#fab005" stroke-width="0.5" fill="none"></path><path d="M2.65 -1.24 C25.23 -1.38, 48.31 2.46, 76.03 -1 M-0.7 -1.42 C24.01 0.07, 49.25 -2.45, 78.33 1.1 M76.24 2.54 C74.77 23.28, 82.07 55.17, 80.01 68.13 M78.99 -0.96 C79.24 15.64, 77.82 30.04, 77.58 63.04 M77.61 64.39 C58.82 64.03, 40.51 67.23, -0.9 64.09 M79.92 65.7 C51.01 66.22, 26.66 64.78, 0.67 63.79 M-1.76 61.16 C4.76 42.94, -1.74 16.2, -2.78 0.3 M-0.02 63.73 C-2.12 40.51, -0.71 16.39, -0.23 0.72" stroke="#000" stroke-width="1" fill="none"></path></g><g stroke-linecap="round"><g transform="translate(646.3290229937443 412.6269622523946) rotate(0 -42.65081347788612 16.539704414272308)"><path d="M0 0 C0 -4.8, 0 -9.6, 0 -13.22 M0 0 C0 -3.53, 0 -7.06, 0 -13.22 M0 -13.22 C-17.29 -13.2, -34.58 -13.19, -46.13 -13.19 M0 -13.22 C-12.84 -13.21, -25.68 -13.2, -46.13 -13.19 M-46.13 -13.19 C-47.53 -16.03, -48.93 -18.88, -52.58 -26.28 M-46.13 -13.19 C-48.25 -17.48, -50.36 -21.78, -52.58 -26.28 M-52.58 -26.28 C-65.38 -26.33, -78.19 -26.39, -85.5 -26.42 M-52.58 -26.28 C-63.32 -26.32, -74.06 -26.37, -85.5 -26.42 M-85.5 -26.42 C-85.56 0.22, -85.61 26.87, -85.67 59.44 M-85.5 -26.42 C-85.57 6.45, -85.63 39.33, -85.67 59.44 M-85.67 59.44 C-61.91 59.46, -38.15 59.48, 0.27 59.5 M-85.67 59.44 C-63.28 59.46, -40.88 59.47, 0.27 59.5 M0.27 59.5 C0.29 51.29, 0.31 43.08, 0.37 19.54 M0.27 59.5 C0.3 50.58, 0.32 41.66, 0.37 19.54" stroke="#000" stroke-width="4" fill="none"></path></g></g><g transform="translate(556.1782095158583 478.66666666666674) rotate(0 47.5 12)"><text x="47.5" y="19" font-family="Roboto Mono, monospace" font-size="20px" fill="#000" text-anchor="middle" style="white-space: pre;" direction="ltr">episodes</text></g><g stroke-linecap="round" transform="translate(733.416666666667 165.66666666666728) rotate(0 39 32.5)"><path d="M0 0 C0 0, 0 0, 0 0 M0 0 C0 0, 0 0, 0 0 M0.01 7.32 C1.54 3.09, 1.52 3.85, 4.95 -1 M-1.04 6.04 C1.43 4.42, 2.07 2.2, 5.41 0.22 M-2.93 12.32 C1.44 9.53, 5.49 2.75, 7.51 -0.77 M-0.36 13.13 C2.31 6.66, 6.79 4.32, 10.05 -1.13 M-0.75 20.12 C1.88 13.49, 8.33 7.24, 19.53 -3.61 M-1.04 17.8 C5.63 11.32, 11.62 6.81, 15.29 -1.47 M4.1 20.2 C3.17 18.46, 16.01 7.31, 24.56 -2.18 M-0.19 23.36 C6.55 15.38, 12.39 11.56, 23.2 -0.25 M-3.98 34 C10.83 22.21, 22.18 8.9, 23.44 -0.71 M1.16 32.28 C8.77 20.5, 15.66 15.46, 26.98 -1.35 M1.07 40.68 C9.7 25.45, 23.44 6.12, 33.31 3.79 M-0.9 37.94 C8.92 29.88, 15.94 21.16, 30.67 1.08 M2.26 45.51 C8.34 29.17, 22 20.06, 39.66 -2.61 M1.76 42.21 C16.05 27.94, 31.44 8.71, 36.7 -0.61 M-0.44 52.03 C16.77 32.51, 31.92 17.16, 39.52 1.18 M0.31 48.67 C13.03 33.08, 27.15 17.82, 44.17 1.35 M-3.48 50.87 C12.54 41.32, 31 17.59, 50.25 -0.64 M-1.4 56.36 C14.31 41.08, 26.5 23.76, 48.57 -0.74 M0.99 59.7 C13.69 51.02, 27.8 30.99, 56.75 -0.83 M0.88 60.82 C12.85 47.27, 25.09 32.47, 52.05 -1.16 M5.02 62.52 C13.63 46.37, 32.23 29.18, 60.24 -1.08 M2.7 66.26 C20.27 42.65, 41.85 16.1, 59.17 0.3 M4.28 62.61 C27.79 45.84, 41.57 23.43, 65.52 -0.02 M5.32 67.62 C18.89 50.55, 35.76 30.15, 63.16 -0.68 M13.47 68.11 C24.58 49.01, 46.24 27.83, 65.69 -1.22 M10.09 65.11 C30.53 43.31, 51.76 21.6, 69.63 0.03 M16.19 68.96 C32.3 49.66, 45.32 30.65, 77.41 -1.19 M15.41 66.11 C32.69 48.96, 42.48 36.14, 74.85 0.06 M19.59 62.15 C33.65 46.5, 49.36 31.03, 76.99 3.38 M22.29 67.5 C34.32 49.1, 50.88 32.16, 76.87 0.23 M31.16 67.74 C45.12 47.45, 64.56 19.42, 81.03 6.65 M26.16 64.6 C49.29 42.8, 68.87 20.37, 79.08 4.63 M29.93 68.85 C43.4 53.05, 55.84 40.54, 78.99 12.01 M31.13 64.2 C45.1 49.74, 58.9 33.86, 77.82 11.98 M39.24 67.66 C46.85 51.33, 62.35 39.04, 78.61 19.95 M37.69 65.6 C52.52 52.83, 65.7 35.97, 78.84 20.54 M42.02 65.41 C56.7 52.54, 66.46 42.45, 82.58 27.03 M44.98 65.5 C51.06 54.78, 60.35 45.18, 80.92 24 M45.48 62.41 C53.08 58.43, 65.84 47.9, 76.58 30.12 M46.58 67.14 C55.63 55.8, 64.74 51.06, 78.9 32.78 M52.42 62.03 C63.56 54.43, 68.62 48.98, 79.82 39.16 M52.69 65.16 C62.15 54.59, 68.31 48.37, 77.27 35.79 M61.93 62.71 C65.87 61.65, 71.86 52.69, 81.85 45.13 M57.94 66.74 C62.53 58.15, 70.62 54.8, 77.95 45.38 M64.67 61.93 C66.79 60.18, 71.53 55.19, 77.1 48.84 M63.61 64.46 C69 58.42, 74.21 52.51, 77.82 51.14 M68.28 64.78 C71.36 61.83, 75.71 60.37, 77.57 56.65 M69.51 65.6 C72.44 63.67, 75.15 59.46, 79.59 56.61 M74.93 66.53 C76.42 65.09, 77.24 62.15, 79.5 62.2 M75.5 65.25 C76.55 64.32, 76.55 63.72, 79.06 62.14" stroke="#fab005" stroke-width="0.5" fill="none"></path><path d="M2.71 -1.5 C23.91 1.74, 53.39 3.34, 77.51 2.88 M0.34 1.15 C22.42 -0.94, 42.3 -1.61, 79.32 0.82 M79.89 3.02 C76.02 20.96, 82.55 41.84, 76.49 63.29 M78.24 1.5 C75.97 23.29, 78.21 47.33, 77.24 65.73 M75.16 67.74 C61.79 64.1, 41.43 63.96, 3.25 68.28 M76.13 63.58 C59.05 64.35, 45.43 63.89, -0.44 64.15 M3.37 68.14 C-0.65 44.71, 2.06 23.8, 1.1 1.91 M1.23 64.23 C-1.24 39.87, 1.28 15.44, 1.78 -0.84" stroke="#000" stroke-width="1" fill="none"></path></g><g stroke-linecap="round"><g transform="translate(814.567480144553 175.62696225239463) rotate(0 -42.65081347788612 16.53970441427232)"><path d="M0 0 C0 -4.56, 0 -9.13, 0 -13.22 M0 0 C0 -4.72, 0 -9.45, 0 -13.22 M0 -13.22 C-17.47 -13.2, -34.93 -13.19, -46.13 -13.19 M0 -13.22 C-11.99 -13.21, -23.99 -13.2, -46.13 -13.19 M-46.13 -13.19 C-47.78 -16.53, -49.42 -19.87, -52.58 -26.28 M-46.13 -13.19 C-48.39 -17.77, -50.64 -22.35, -52.58 -26.28 M-52.58 -26.28 C-61.66 -26.32, -70.75 -26.36, -85.5 -26.42 M-52.58 -26.28 C-61.92 -26.32, -71.26 -26.36, -85.5 -26.42 M-85.5 -26.42 C-85.57 4.92, -85.63 36.27, -85.67 59.44 M-85.5 -26.42 C-85.54 -7.67, -85.58 11.09, -85.67 59.44 M-85.67 59.44 C-66.73 59.46, -47.78 59.47, 0.27 59.5 M-85.67 59.44 C-63.02 59.46, -40.36 59.47, 0.27 59.5 M0.27 59.5 C0.3 48.98, 0.33 38.45, 0.37 19.54 M0.27 59.5 C0.31 46.31, 0.34 33.12, 0.37 19.54" stroke="#000" stroke-width="4" fill="none"></path></g></g><g transform="translate(724.416666666667 241.66666666666674) rotate(0 47.5 12)"><text x="47.5" y="19" font-family="Roboto Mono, monospace" font-size="20px" fill="#000" text-anchor="middle" style="white-space: pre;" direction="ltr">profiles</text></g><g stroke-linecap="round" transform="translate(733.416666666667 318.6666666666673) rotate(0 39 32.5)"><path d="M0 0 C0 0, 0 0, 0 0 M0 0 C0 0, 0 0, 0 0 M-0.63 6.18 C0.27 4.19, 3.23 1.23, 5.77 1.88 M-0.88 5.68 C1.87 3.64, 3.27 2.56, 5.36 -0.1 M-0.42 13.41 C2.85 6.4, 5.07 2.18, 9.73 -2.65 M1.3 10.87 C0.91 7.79, 4.67 7.52, 10.08 0.22 M-2.61 21.34 C1.05 10.88, 6.34 10.92, 17.9 3.82 M1.63 17.32 C6.79 12.64, 10.34 6.51, 14.33 0.46 M-3.43 23.63 C6.99 17.04, 16.63 9.79, 18.6 -1.02 M-1.06 24.21 C7.99 16.05, 17.14 5.71, 21.94 0.38 M-1.65 27.62 C12.65 19.75, 18.99 13.37, 29.54 -2.38 M0.96 31.64 C7.1 23.59, 10.43 16.31, 25.42 -1.28 M0.14 36.97 C9.76 22.16, 19.91 12.95, 35.34 1.06 M1.59 36.81 C5.82 28.43, 15.56 16.79, 31.57 -0.8 M3.41 44.26 C4.32 32.23, 15.13 22.71, 40.06 0.61 M-1.81 40.92 C8.83 35.03, 16.65 23.69, 34.97 1.58 M-2.31 47.3 C11.72 33.85, 30.21 17.01, 42.44 1.47 M0.63 48.48 C10.07 35.56, 18.6 24.21, 42.35 0.62 M-0.75 57.8 C9.54 37.91, 24.41 30.78, 48.66 2.83 M-1.13 55 C17.61 34.3, 34.09 15.88, 46.25 1.15 M-0.24 57.44 C21.08 37.21, 38.67 15.3, 55.59 -2.23 M0.69 62.07 C17.88 41.56, 36.11 18.58, 53.32 0.98 M-1.76 69.03 C24.19 43.55, 44.28 18.73, 55.54 1.34 M0.66 67.49 C16.67 47.56, 32.35 31.2, 58.04 2.02 M8.45 69.62 C19.49 54.43, 26.73 40.91, 67.5 2.5 M4.44 65.39 C23.37 48.05, 38.35 28.25, 62.99 1.14 M14.27 67.94 C25.45 52.8, 40.79 36.45, 69.9 0.17 M13.28 66.68 C25.81 54.22, 35.7 39.22, 68.6 1.3 M19.65 69.42 C36.06 45.97, 52.21 29.47, 71.87 3.21 M14.84 67.06 C33.41 48.51, 50.22 30.42, 73.39 -1.56 M19.21 65.39 C45.9 44.03, 68.59 19.94, 77.31 3.14 M22.91 67.23 C36.16 50.33, 51.23 30.7, 79.06 1.34 M26.99 69.15 C38.94 47.87, 56.7 30.65, 81.51 9.23 M27.08 67.95 C39.43 50.96, 53.07 32.03, 80.14 5.53 M35.74 67.92 C46.66 47.4, 66.36 25.4, 79.76 14.85 M33.07 64.99 C48.68 46.81, 66.8 26.93, 77.5 14.81 M37.65 66.87 C48.64 57.17, 57.09 44.61, 76.77 21.36 M36.42 64.17 C53.5 47.94, 68.21 31.46, 76.91 20.01 M39.59 65.09 C53.35 59.62, 60.07 48.18, 75.31 25.04 M42.78 64.32 C53.08 56.41, 62.78 43.28, 78.55 24.99 M51.85 67.62 C52.65 54.03, 68.25 46.68, 76.25 33.36 M49.64 64.33 C59.58 55.03, 69.52 43.77, 78.13 29.93 M55.44 69.44 C55.89 58.85, 65.4 55.42, 77.16 33.74 M54.58 66.07 C62.77 55.27, 71.7 46.42, 78.46 38.99 M62.78 67.46 C60.4 64.45, 68.27 55.53, 77.02 45.53 M61.02 65.51 C67.53 60.01, 73.62 48.87, 79.18 43.4 M61.01 68.52 C67.11 58.88, 69.6 62.94, 74.85 48.76 M66.47 67.6 C69.81 61.23, 72.74 56.26, 80.36 49.16 M71.81 68.39 C71.3 62.38, 76.95 61.77, 78.13 56.11 M68.77 65.53 C71.6 62.64, 74.33 62.3, 79.4 56.03 M75.35 65.42 C76.51 63.36, 78.12 62.81, 78.29 61.03 M75.6 65.89 C76.68 64.67, 77.68 63.03, 78.27 61.9" stroke="#dad0a5" stroke-width="0.5" fill="none"></path><path d="M3.99 2.97 C33.9 -4.01, 60.81 0.79, 75.37 -3.95 M0.39 -1.41 C26 0.78, 55.14 1.73, 76.28 1.37 M77.52 1.81 C76.7 15.17, 76.94 28.91, 77.48 66.66 M78.95 -1.21 C79.27 16.1, 77.29 34.16, 77.85 64.36 M76.86 61.97 C52.03 70.37, 25.27 70.37, 3.1 65.28 M77.35 63.12 C50.99 64.17, 21.11 65.04, 0.89 64.39 M2.31 63.28 C3.79 50.92, -0.82 32.56, -2.92 -1.79 M0.54 63.3 C0.01 43.33, -0.03 26.34, 1.57 -0.55" stroke="#343a40" stroke-width="1" fill="none"></path></g><g stroke-linecap="round"><g transform="translate(814.567480144553 328.6269622523946) rotate(0 -42.65081347788612 16.539704414272308)"><path d="M0 0 C0 -4.92, 0 -9.84, 0 -13.22 M0 0 C0 -5.07, 0 -10.15, 0 -13.22 M0 -13.22 C-18.03 -13.2, -36.05 -13.19, -46.13 -13.19 M0 -13.22 C-18.08 -13.2, -36.15 -13.19, -46.13 -13.19 M-46.13 -13.19 C-48.4 -17.79, -50.66 -22.39, -52.58 -26.28 M-46.13 -13.19 C-47.76 -16.5, -49.39 -19.81, -52.58 -26.28 M-52.58 -26.28 C-61.06 -26.31, -69.55 -26.35, -85.5 -26.42 M-52.58 -26.28 C-65.58 -26.33, -78.58 -26.39, -85.5 -26.42 M-85.5 -26.42 C-85.56 0.52, -85.61 27.47, -85.67 59.44 M-85.5 -26.42 C-85.56 0.9, -85.61 28.23, -85.67 59.44 M-85.67 59.44 C-53.36 59.47, -21.05 59.49, 0.27 59.5 M-85.67 59.44 C-55.8 59.46, -25.92 59.48, 0.27 59.5 M0.27 59.5 C0.29 51.44, 0.31 43.38, 0.37 19.54 M0.27 59.5 C0.31 44.29, 0.35 29.07, 0.37 19.54" stroke="#343a40" stroke-width="4" fill="none"></path></g></g><g transform="translate(747.916666666667 394.66666666666674) rotate(0 24 12)"><text x="24" y="19" font-family="Roboto Mono, monospace" font-size="20px" fill="#343a40" text-anchor="middle" style="white-space: pre;" direction="ltr">site</text></g><g stroke-linecap="round" transform="translate(563.1782095158583 115.66666666666802) rotate(0 39 32.5)"><path d="M0 0 C0 0, 0 0, 0 0 M0 0 C0 0, 0 0, 0 0 M1.22 6.26 C0.97 5.08, 3.35 5.1, 5.3 1.24 M-1.03 6.79 C1.47 4.57, 2.38 3.24, 5.11 0.94 M-1.23 14.67 C5.89 9.69, 6.26 6.13, 12.56 -1.12 M-0.83 11.71 C2.93 8.66, 6.8 5.77, 9.86 -1 M-3.15 15.49 C3.11 14.25, 6.92 7.93, 13.51 -3.15 M0.64 18.38 C5.48 13.22, 7.42 10.1, 14.5 0.05 M0.4 25.94 C7.75 17.6, 13.11 2.42, 23.33 1.28 M0.17 23.81 C6.56 16.29, 16.43 7.13, 20.32 -0.96 M-2.88 31.19 C9.77 19.41, 20.46 13.2, 26.96 -1.05 M0.17 31.52 C6.57 20.38, 12.78 15.58, 26.07 -0.42 M-4.04 33.54 C10.51 22.7, 22.15 7.36, 28.44 -4.03 M-1.69 38.34 C9.77 20.9, 25.52 10.11, 31.32 0.95 M-1.21 41.36 C9.97 30.5, 21.56 14.7, 36.13 1.55 M-1.73 43.56 C10.98 30.66, 23.86 16.38, 36.09 -1.06 M-3.53 49.34 C8.07 40.82, 17.41 31.11, 41.94 -0.09 M0.79 50.22 C11.98 34.19, 24.59 24.52, 43.02 -1.23 M3.41 51.21 C12.57 41.05, 25.34 23.77, 46.09 -1.64 M1.28 54.79 C15.67 37.58, 31.2 16.87, 49.17 0.15 M2.33 63.79 C18.16 39.1, 34.99 19.49, 52.38 -0.72 M1.54 60.24 C18.26 40.79, 34.11 22, 52.26 -1.74 M4.18 66.18 C17.87 41.84, 33.89 28.88, 60.89 0.1 M0.7 64.22 C22.1 42.2, 43.04 15.05, 58.4 0.74 M3.49 68.8 C22.35 47.45, 38.4 24.1, 63.29 -2.7 M5.57 65.12 C25.77 44.38, 44.95 21.59, 64.39 0.7 M9.83 66.91 C27.42 51.93, 39.88 35.11, 67.55 2.45 M13.08 64.56 C27.71 44.83, 44.8 29.16, 69.4 1.73 M13.67 65.58 C38.85 41.86, 53.09 19.24, 77.22 -1.84 M15.17 65.4 C39.45 38.96, 60.16 14.96, 73.27 -1.14 M25.06 64.93 C41.33 44.74, 60 29.75, 75.49 2.88 M20.43 65.91 C39.18 50.01, 51.32 33.26, 79.6 0.39 M26.35 68.13 C40 54.93, 51.31 39.73, 81.82 5.86 M25.85 64.88 C40.6 49.81, 54.27 35.9, 79.34 7.82 M31.44 69.43 C52.52 50.48, 63.58 27.52, 76.55 9.65 M31.09 66.54 C45.63 48.98, 57.18 33.63, 78.42 11.32 M38.55 62.14 C48.9 51.44, 66.04 29.6, 78.3 17.86 M38.21 65.59 C49.53 50.29, 65.18 37.05, 78.12 18.58 M41.49 66.62 C52.8 51.79, 58.61 43.85, 80.63 26.16 M41.93 64.21 C55.15 52.32, 66.8 36.59, 78.8 26.73 M46.34 66.31 C56.8 55.3, 69.53 42.39, 80.09 34.55 M49.36 65.05 C60.01 55.74, 67.75 42.39, 78.86 31.63 M50.77 67.7 C65.69 54.01, 75.05 43.25, 78.78 36.09 M54.28 64.21 C62.9 57.53, 73.8 45.52, 80.35 37.62 M60.75 68.35 C67.9 60.05, 66.45 53.64, 77.1 40.9 M60.88 64.29 C68.63 57.59, 75.33 46.02, 80.74 42.5 M61.83 68.88 C67.21 58.77, 74.94 59.17, 76.38 48.92 M66.01 67.31 C68.66 63.59, 70.46 58.92, 78.51 51.29 M68.44 65.28 C72.9 64.49, 76.84 57.9, 81.71 54.51 M70.58 67.28 C73.29 62.91, 74.16 60.1, 79.8 54.05 M75.65 66.04 C76.9 65.09, 77.22 63.02, 79.01 62.58 M75.47 65.65 C76.5 64.7, 77.85 63.7, 78.86 61.43" stroke="#fab005" stroke-width="0.5" fill="none"></path><path d="M2.85 1.03 C17.8 -0.5, 33.86 -1.59, 76.03 1.72 M-0.58 -0.07 C21.67 -0.11, 41.58 0.22, 78.97 1.39 M76.49 3.86 C76.23 12.12, 81.99 29.31, 80.41 64.18 M79.9 -0.1 C78.24 13.56, 79.54 25.7, 78.28 65.26 M74.21 62.08 C58.4 65.9, 36.17 62.94, 0.45 66.54 M77.41 64.46 C54.41 64.57, 28.87 62.97, 1.09 64.45 M-2.29 62.32 C1.03 49.86, -2.53 26.16, 2.3 -0.01 M-1.27 63.9 C-1.08 41.57, -1.56 15.27, 0.46 1.48" stroke="#000" stroke-width="1" fill="none"></path></g><g stroke-linecap="round"><g transform="translate(644.3290229937443 125.62696225239452) rotate(0 -42.65081347788612 16.53970441427232)"><path d="M0 0 C0 -3.65, 0 -7.31, 0 -13.22 M0 0 C0 -5.06, 0 -10.11, 0 -13.22 M0 -13.22 C-14.17 -13.21, -28.35 -13.2, -46.13 -13.19 M0 -13.22 C-17.24 -13.2, -34.48 -13.19, -46.13 -13.19 M-46.13 -13.19 C-47.52 -16, -48.9 -18.82, -52.58 -26.28 M-46.13 -13.19 C-48.51 -18.03, -50.9 -22.87, -52.58 -26.28 M-52.58 -26.28 C-61.56 -26.32, -70.55 -26.36, -85.5 -26.42 M-52.58 -26.28 C-62.63 -26.32, -72.68 -26.37, -85.5 -26.42 M-85.5 -26.42 C-85.55 -2.66, -85.6 21.11, -85.67 59.44 M-85.5 -26.42 C-85.56 0.69, -85.61 27.81, -85.67 59.44 M-85.67 59.44 C-60.2 59.46, -34.73 59.48, 0.27 59.5 M-85.67 59.44 C-52.26 59.47, -18.84 59.49, 0.27 59.5 M0.27 59.5 C0.3 50.51, 0.32 41.53, 0.37 19.54 M0.27 59.5 C0.29 50.98, 0.32 42.46, 0.37 19.54" stroke="#000" stroke-width="4" fill="none"></path></g></g><g transform="translate(554.1782095158583 191.66666666666674) rotate(0 47.5 12)"><text x="47.5" y="19" font-family="Roboto Mono, monospace" font-size="20px" fill="#000" text-anchor="middle" style="white-space: pre;" direction="ltr">learners</text></g><g stroke-linecap="round" transform="translate(563.1782095158583 255.6666666666688) rotate(0 39 32.5)"><path d="M0 0 C0 0, 0 0, 0 0 M0 0 C0 0, 0 0, 0 0 M0.67 7.53 C1.18 4.27, 2.16 3.04, 4.68 0.14 M0.35 6.11 C1.87 4.18, 3.24 2.37, 4.63 -0.27 M2.63 12.31 C3 5.22, 5.25 7.01, 12.83 -0.11 M-0.15 10.74 C3.84 8.07, 7.14 1.81, 10.84 0.41 M-2.69 21.03 C3.4 14.09, 7.23 4.81, 15.12 -2.17 M-0.61 17.35 C5.02 12.59, 10 6.13, 16.23 1.23 M-1.6 25.18 C7.22 20.68, 10.33 14.61, 20.04 2.23 M1.66 22.83 C6.31 15.15, 13.28 11.12, 21.89 1.5 M-3 29.89 C12.01 18.74, 15.73 8.21, 29.06 -1.31 M-1.5 29.7 C10.75 17.67, 19.36 7.6, 25.11 -0.6 M2.49 36.02 C11.15 24.46, 22.61 17.76, 28.64 1.9 M-2.15 37.01 C10.01 27.75, 16.08 17.98, 32.75 -0.59 M-0.82 44.51 C9.64 35.56, 17.48 24.36, 39.57 -0.4 M-1.32 41.26 C9.87 30.41, 19.77 20.84, 37.09 1.56 M-1.64 52.6 C18.2 35.01, 28.05 13.44, 40.2 -3.4 M-1.98 49.71 C11.7 33.27, 22.33 18.98, 42.06 -1.73 M0.89 50.59 C13.49 37.19, 32.93 12.72, 47.19 -1.23 M0.55 54.05 C14.05 36.47, 31.74 20.87, 47.02 -0.51 M-2.08 61.87 C14.15 41.79, 24.51 28.63, 54.78 1.03 M-1.64 59.46 C17.63 40.51, 35.2 17.97, 52.94 1.6 M-1.17 66.09 C16.94 46.17, 37.22 24.57, 59.48 3.39 M1.85 64.83 C21.34 45.85, 37.64 22.66, 58.25 0.47 M2.61 68.23 C28.7 41.49, 49.95 17.04, 63.42 -1.11 M6.12 64.75 C26.44 45.04, 48.86 19.78, 64.99 0.42 M13.25 68.13 C30.39 48.66, 38.06 31.75, 66.99 -2.34 M13.38 64.07 C35.51 39.57, 57.09 10.88, 70.63 -0.74 M13.66 69.41 C32.73 42.35, 54.47 26.62, 72.17 -1.12 M17.84 67.85 C31.57 51.28, 44.13 34.24, 74.3 1.25 M20.33 64.74 C38.39 48.94, 56.21 25.49, 82.6 -0.44 M23.39 67.6 C37.37 48.95, 49.51 32.39, 79.87 -1.1 M28.04 67.89 C47.77 46.56, 63.76 21.37, 80.18 9.51 M27.29 66.32 C42.96 49.11, 60.12 31.61, 79.58 4.92 M29.14 69.64 C45.36 50.46, 60.65 38.16, 77.67 13.84 M34.49 67.45 C51.14 45.18, 67.56 26.37, 77.62 11.72 M38.29 69.87 C48.75 54.04, 59.64 44.61, 76.14 16.71 M37.32 67.94 C52.38 49.5, 68.18 28.65, 78.57 20.19 M39.71 65.51 C50.22 57.3, 64.32 42.67, 81.6 24.38 M41.78 67.15 C54.66 49.7, 69.52 36.27, 79.07 23.68 M51.95 66.55 C59.43 52.29, 72.41 41.73, 77.01 33.41 M47.27 67.97 C59.99 52.22, 69.02 41.22, 78.8 33.29 M51.1 68.06 C61.2 59.58, 62.83 50.27, 80.93 35.4 M52.86 65.72 C62.18 58.41, 70.16 48.91, 78.09 35.56 M59.58 66.15 C64.59 56.14, 74.71 50.47, 76.18 41.05 M61 65.2 C65.14 59.23, 74.91 49.11, 77.7 41.5 M61.35 61.99 C67.81 57.66, 71.55 58.91, 76.54 52.85 M63.83 65.68 C71.28 59, 72.74 53.53, 80.36 48.37 M67.65 68.7 C69.27 62.55, 75.49 60.79, 81.59 53.97 M70.55 65.93 C72.78 63.72, 75.16 58.77, 78.21 56.42 M75.48 65.46 C76.59 64.65, 77.01 63.66, 78.64 62.73 M75.43 65.47 C76.68 64.16, 77.38 63.01, 78.58 61.47" stroke="#fab005" stroke-width="0.5" fill="none"></path><path d="M-2.89 0.71 C26.56 -0.88, 54.06 2.72, 78.71 -1.34 M0.17 1.04 C19.6 -3.14, 39.12 -0.19, 77.82 -0.71 M74.21 -3.33 C76.64 25.58, 75.94 49.39, 74.55 61.08 M76.57 1.46 C77.05 22.86, 80.65 50.62, 77.43 66.05 M76.65 63.84 C50.45 68.23, 24.65 66.21, -0.74 66.29 M76.13 66.04 C52.15 65.57, 28.11 64.89, -0.79 63.68 M-3.41 65.42 C-1.08 53.34, -1.16 40.11, -0.58 0.05 M0.91 66.3 C0.38 45.42, 1.32 31.38, 0.5 -1.1" stroke="#000" stroke-width="1" fill="none"></path></g><g stroke-linecap="round"><g transform="translate(644.3290229937443 265.6269622523946) rotate(0 -42.65081347788612 16.53970441427232)"><path d="M0 0 C0 -3.92, 0 -7.84, 0 -13.22 M0 0 C0 -3.4, 0 -6.8, 0 -13.22 M0 -13.22 C-14.32 -13.21, -28.65 -13.2, -46.13 -13.19 M0 -13.22 C-16.5 -13.2, -32.99 -13.19, -46.13 -13.19 M-46.13 -13.19 C-48.07 -17.12, -50.01 -21.06, -52.58 -26.28 M-46.13 -13.19 C-48.24 -17.47, -50.35 -21.76, -52.58 -26.28 M-52.58 -26.28 C-60.82 -26.31, -69.07 -26.35, -85.5 -26.42 M-52.58 -26.28 C-62.94 -26.32, -73.31 -26.37, -85.5 -26.42 M-85.5 -26.42 C-85.54 -7.77, -85.58 10.88, -85.67 59.44 M-85.5 -26.42 C-85.56 1.03, -85.61 28.49, -85.67 59.44 M-85.67 59.44 C-61.47 59.46, -37.28 59.48, 0.27 59.5 M-85.67 59.44 C-64.73 59.46, -43.79 59.47, 0.27 59.5 M0.27 59.5 C0.3 47.61, 0.33 35.72, 0.37 19.54 M0.27 59.5 C0.31 45.93, 0.34 32.36, 0.37 19.54" stroke="#000" stroke-width="4" fill="none"></path></g></g><g transform="translate(536.6782095158584 331.66666666666674) rotate(0 64.99999999999994 12)"><text x="65" y="19" font-family="Roboto Mono, monospace" font-size="20px" fill="#000" text-anchor="middle" style="white-space: pre;" direction="ltr">instructors</text></g><g stroke-linecap="round"><g transform="translate(590.1832099264002 586.1311294458706) rotate(357.8738834152466 105.1604837345883 -24.355557099014106)"><path d="M0 0 C0.75 -7.23, -29.01 -36.14, 4.47 -43.37 C37.95 -50.6, 165.31 -50.61, 200.88 -43.37 C236.45 -36.13, 215.07 -7.16, 217.91 0.08 M0 0 C0.75 -7.23, -29.01 -36.14, 4.47 -43.37 C37.95 -50.6, 165.31 -50.61, 200.88 -43.37 C236.45 -36.13, 215.07 -7.16, 217.91 0.08" stroke="#000" stroke-width="4" fill="none"></path></g></g><g stroke-linecap="round"><g transform="translate(700.2935947519368 585.8470815077272) rotate(0 -23.910490182956607 -81.47867700958346)"><path d="M0 0 C-0.66 -19.99, 4.13 -92.81, -3.97 -119.97 C-12.07 -147.13, -41.18 -155.79, -48.63 -162.96 M0 0 C-0.66 -19.99, 4.13 -92.81, -3.97 -119.97 C-12.07 -147.13, -41.18 -155.79, -48.63 -162.96" stroke="#000" stroke-width="4" fill="none"></path></g></g><g transform="translate(102.89661654135352 25.973684210526415) rotate(0 64 21.5)"><text x="64" y="35" font-family="Roboto Mono, monospace" font-size="36px" fill="#343a40" text-anchor="middle" style="white-space: pre;" direction="ltr">styles</text></g><g transform="translate(608.0632832080203 32.64035087719307) rotate(0 95.5 21.5)"><text x="95.5" y="35" font-family="Roboto Mono, monospace" font-size="36px" fill="#343a40" text-anchor="middle" style="white-space: pre;" direction="ltr">workbench</text></g></svg>